<svg xmlns="http://www.w3.org/2000/svg" width="112" height="188" fill="none"><path fill="silver" d="m108 0 3.5 7.5v180H3.5L0 180z"/><path fill="#EBEBEB" d="M0 0h108v180H0z"/><path fill="#000" d="M11.619 44.004v-4.855h3.064v.495h-2.54v1.674h2.234v.51h-2.234v1.68h2.54v.495zm5.684 0v-4.855h.597l3.028 4.272-.131.204v-4.476h.524v4.855h-.59l-3.144-4.433.24-.225v4.658zm6.555 0v-.459l3.013-4.141.102.24h-3.042v-.495h3.384v.444l-2.947 4.112-.066-.196h3.013v.495zm8.038.072q-.72 0-1.208-.276a1.8 1.8 0 0 1-.728-.837q-.24-.553-.24-1.383 0-1.238.546-1.863.552-.633 1.63-.633.728 0 1.208.283.488.277.728.83.247.553.247 1.383 0 1.237-.553 1.87-.546.626-1.63.626m0-.495q.574 0 .939-.21.364-.212.531-.656.175-.444.175-1.135t-.175-1.128a1.23 1.23 0 0 0-.531-.655q-.364-.219-.94-.218-.567 0-.93.218-.364.21-.54.655-.166.437-.167 1.128 0 .691.168 1.135.175.444.538.655t.932.211"/><path fill="#DD127B" d="M42.088 32.113h4.565L54 43.446h-4.665z"/><path fill="#000" d="M31.05 32.15h-2.203l-3.546 5.47h2.251z"/><path fill="#F9C301" d="M38 32.238h-4.565l-3.488 5.31h5.177z"/><path fill="#CEA100" d="m33.478 32.25 1.128.439 1.344 3.345-.791 1.505z"/><path fill="#0093DD" d="M33.458 32.238h4.565l7.348 11.333h-4.665z"/><path fill="#000" d="M11.924 46.437v.383h-.108v-1.001h.355q.168 0 .257.08.09.079.09.23 0 .15-.09.229t-.257.08zm0-.103h.234q.084 0 .133-.018a.2.2 0 0 0 .077-.048.2.2 0 0 0 .033-.068.3.3 0 0 0 0-.144.15.15 0 0 0-.033-.066.17.17 0 0 0-.077-.05.4.4 0 0 0-.133-.017h-.234zm3.063.486v-1.001h.411q.147 0 .22.073.075.075.076.218 0 .087-.036.155a.27.27 0 0 1-.252.145l.045-.03.288.44h-.128l-.297-.46.054.056h-.273v.404zm.108-.506h.254q.124 0 .18-.05.057-.05.057-.146a.22.22 0 0 0-.042-.143q-.042-.054-.158-.054h-.29zm3.09.506v-1.001h.108v1zm2.615 0v-1.001h.123l.624.88-.027.043v-.923h.108v1h-.122l-.648-.913.05-.047v.96zm3.59 0v-.899h-.354v-.102h.815v.102h-.353v.899zm2.87 0v-1.001h.108v1zm2.614 0v-1.001h.123l.625.88-.027.043v-.923h.108v1h-.122l-.648-.913.05-.047v.96zm3.76.015a.5.5 0 0 1-.256-.057.37.37 0 0 1-.156-.173.7.7 0 0 1-.05-.286.7.7 0 0 1 .05-.286.36.36 0 0 1 .156-.17.5.5 0 0 1 .257-.058q.083 0 .162.017a.7.7 0 0 1 .153.05v.114a1 1 0 0 0-.147-.054.52.52 0 0 0-.365.02.27.27 0 0 0-.12.136.6.6 0 0 0-.039.23q0 .142.04.233a.27.27 0 0 0 .12.137q.082.043.208.043a.8.8 0 0 0 .23-.036v-.285h-.242v-.105h.35v.452a.8.8 0 0 1-.35.078M13.904 68.764a.98.98 0 0 1 .605.369q.238.3.238.687 0 .35-.175.618a1.13 1.13 0 0 1-.493.412q-.325.15-.769.15h-1.88v-4.359h1.8q.443 0 .761.144.325.144.487.4.17.256.169.58a.98.98 0 0 1-.206.637q-.2.256-.537.362m-1.599-.324h.8q.312 0 .48-.138a.5.5 0 0 0 .169-.406.5.5 0 0 0-.169-.406q-.168-.143-.48-.143h-.8zm.88 1.848q.319 0 .494-.15a.52.52 0 0 0 .181-.424.54.54 0 0 0-.187-.437q-.188-.163-.506-.163h-.862v1.174zm3.133-2.21q.168-.275.437-.431.274-.156.624-.157v.919h-.23q-.413 0-.625.193-.206.194-.206.674V71h-.875v-3.46h.875zm2.094-.95a.55.55 0 0 1-.388-.143.5.5 0 0 1-.15-.369.48.48 0 0 1 .15-.362q.157-.15.388-.15.23 0 .38.15a.47.47 0 0 1 .157.362.5.5 0 0 1-.157.369.53.53 0 0 1-.38.143m.43.412V71h-.874v-3.46zm2.781-.05q.618 0 1 .394.38.387.38 1.087V71h-.874v-1.91q0-.413-.206-.632-.206-.225-.562-.224-.362 0-.574.224-.207.219-.206.631V71h-.875v-3.46h.875v.431q.174-.225.443-.35.274-.13.6-.13m3.567-.006q.387 0 .68.156.294.15.463.394v-.494h.88v3.485q0 .48-.194.855a1.4 1.4 0 0 1-.58.6q-.387.225-.937.225-.737 0-1.211-.344a1.28 1.28 0 0 1-.531-.936h.868a.64.64 0 0 0 .293.374q.231.144.556.144.381 0 .618-.231.238-.225.238-.687v-.537a1.3 1.3 0 0 1-.469.406 1.4 1.4 0 0 1-.674.162q-.437 0-.8-.225a1.6 1.6 0 0 1-.574-.63 2.1 2.1 0 0 1-.206-.943q0-.525.206-.93.213-.407.568-.625a1.53 1.53 0 0 1 .806-.219m1.143 1.786q0-.318-.125-.543a.85.85 0 0 0-.337-.35.9.9 0 0 0-.456-.125.89.89 0 0 0-.787.469 1.1 1.1 0 0 0-.125.537q0 .312.125.55a.96.96 0 0 0 .337.355.9.9 0 0 0 .45.125.9.9 0 0 0 .456-.118.9.9 0 0 0 .337-.35 1.14 1.14 0 0 0 .125-.55m2.177-2.142a.55.55 0 0 1-.387-.143.5.5 0 0 1-.15-.369.48.48 0 0 1 .15-.362q.156-.15.387-.15t.381.15a.47.47 0 0 1 .156.362.5.5 0 0 1-.156.369.53.53 0 0 1-.38.143m.431.412V71h-.874v-3.46zm2.781-.05q.618 0 1 .394.38.387.38 1.087V71h-.874v-1.91q0-.413-.206-.632-.207-.225-.562-.224-.363 0-.575.224-.206.219-.206.631V71h-.874v-3.46h.874v.431q.176-.225.444-.35.274-.13.6-.13m3.567-.006q.387 0 .68.156.294.15.462.394v-.494h.88v3.485q0 .48-.193.855-.193.381-.58.6-.388.225-.937.225-.736 0-1.212-.344a1.28 1.28 0 0 1-.53-.936h.868a.64.64 0 0 0 .293.374q.232.144.556.144.381 0 .618-.231.237-.225.237-.687v-.537a1.3 1.3 0 0 1-.468.406 1.4 1.4 0 0 1-.674.162q-.437 0-.8-.225a1.6 1.6 0 0 1-.574-.63 2.1 2.1 0 0 1-.206-.943q0-.525.206-.93.211-.407.568-.625a1.53 1.53 0 0 1 .806-.219m1.142 1.786q0-.318-.124-.543a.86.86 0 0 0-.338-.35.9.9 0 0 0-.456-.125.89.89 0 0 0-.786.469 1.1 1.1 0 0 0-.125.537q0 .312.125.55.131.23.337.355a.87.87 0 0 0 .45.125.9.9 0 0 0 .455-.118.9.9 0 0 0 .337-.35 1.14 1.14 0 0 0 .125-.55m6.689-2.629-1.474 2.842V71h-.874v-1.517l-1.48-2.842h.986l.937 1.992.93-1.992zm2.04 4.415q-.5 0-.9-.218a1.64 1.64 0 0 1-.63-.631 1.9 1.9 0 0 1-.225-.937q0-.531.231-.936.237-.407.643-.625.406-.225.906-.225t.905.225q.406.219.637.624.237.406.238.937 0 .53-.244.937a1.66 1.66 0 0 1-.65.63q-.405.22-.911.22m0-.762a.854.854 0 0 0 .78-.462q.125-.23.125-.562 0-.493-.262-.755a.84.84 0 0 0-.63-.269q-.375 0-.631.269-.25.261-.25.755t.243.762a.83.83 0 0 0 .625.262m5.712-2.754V71h-.88v-.437q-.169.225-.444.356a1.4 1.4 0 0 1-.587.125q-.405 0-.718-.169a1.25 1.25 0 0 1-.494-.506 1.7 1.7 0 0 1-.174-.799v-2.03h.874v1.905q0 .412.206.637.206.219.562.219.361 0 .568-.219.207-.225.206-.637v-1.904zm1.737.537q.168-.274.437-.43.274-.156.624-.157v.919h-.23q-.414 0-.625.193-.207.194-.206.674V71h-.875v-3.46h.875zm7.053-1.436L58.064 71h-1.062l-1.598-4.359h.936l1.2 3.466 1.192-3.466zm.968.487a.55.55 0 0 1-.387-.143.5.5 0 0 1-.15-.369.48.48 0 0 1 .15-.362q.156-.15.387-.15.23 0 .38.15a.47.47 0 0 1 .157.362.5.5 0 0 1-.156.369.53.53 0 0 1-.381.143m.43.412V71h-.873v-3.46zm2.188 3.516q-.425 0-.761-.15a1.4 1.4 0 0 1-.537-.418q-.194-.262-.213-.58h.88a.48.48 0 0 0 .194.33q.175.131.431.131.25 0 .387-.1a.3.3 0 0 0 .144-.256q0-.168-.175-.25a3 3 0 0 0-.543-.187 5 5 0 0 1-.637-.193 1.1 1.1 0 0 1-.425-.306q-.174-.207-.175-.556 0-.288.163-.525.168-.237.474-.374.313-.138.731-.138.618 0 .987.313.367.306.406.83h-.837a.44.44 0 0 0-.175-.325.62.62 0 0 0-.406-.125.66.66 0 0 0-.368.088.28.28 0 0 0-.125.243q0 .176.175.269.174.088.543.181.375.094.618.194.244.099.418.312.182.205.188.55 0 .3-.169.536a1.1 1.1 0 0 1-.474.375 1.8 1.8 0 0 1-.719.131m2.523-3.928a.55.55 0 0 1-.387-.143.5.5 0 0 1-.15-.369.48.48 0 0 1 .15-.362q.156-.15.387-.15.23 0 .38.15a.47.47 0 0 1 .157.362.5.5 0 0 1-.156.369.53.53 0 0 1-.381.143m.43.412V71h-.874v-3.46zm2.4 3.516q-.498 0-.899-.218a1.64 1.64 0 0 1-.63-.631 1.9 1.9 0 0 1-.225-.937q0-.531.23-.936.24-.407.644-.625.405-.225.906-.225.499 0 .905.225.406.219.637.624.237.406.237.937 0 .53-.243.937-.237.405-.65.63-.405.22-.911.22m0-.762a.855.855 0 0 0 .78-.462q.126-.23.126-.562 0-.493-.262-.755a.84.84 0 0 0-.63-.269q-.374 0-.632.269-.25.261-.25.755t.244.762a.83.83 0 0 0 .625.262m4.364-2.803q.618 0 .999.393.38.387.38 1.087V71h-.873v-1.91q0-.413-.207-.632-.205-.225-.562-.224-.362 0-.574.224-.207.219-.206.631V71h-.874v-3.46h.874v.431q.174-.225.443-.35.275-.13.6-.13m4.717.768v1.673q0 .175.081.256.087.075.287.075h.406V71h-.55q-1.105 0-1.105-1.074v-1.667h-.412v-.719h.413v-.855h.88v.855h.774v.719zm2.94 2.797q-.5 0-.9-.218a1.64 1.64 0 0 1-.63-.631 1.9 1.9 0 0 1-.225-.937q0-.531.23-.936.238-.407.644-.625.405-.225.905-.225t.906.225q.406.219.637.624.237.406.237.937 0 .53-.243.937-.238.405-.65.63-.406.22-.912.22m0-.762a.855.855 0 0 0 .78-.462q.125-.23.125-.562 0-.493-.263-.755a.84.84 0 0 0-.63-.269q-.375 0-.63.269-.25.261-.25.755t.243.762a.83.83 0 0 0 .624.262m7.112-2.304q0 .35-.169.656a1.2 1.2 0 0 1-.518.493q-.35.187-.887.187h-.73V71h-.875v-4.359h1.605q.506 0 .862.175t.53.48q.182.307.182.694m-1.611.63q.362 0 .537-.162.174-.168.175-.468 0-.636-.712-.637h-.694v1.268zm3.106-.543q.168-.274.437-.43.275-.156.624-.157v.919h-.23q-.414 0-.625.193-.206.194-.206.674V71h-.874v-3.46h.874zm2.094-.949a.55.55 0 0 1-.388-.143.5.5 0 0 1-.15-.369.48.48 0 0 1 .15-.362q.157-.15.388-.15.23 0 .38.15a.47.47 0 0 1 .157.362.5.5 0 0 1-.156.369.53.53 0 0 1-.381.143m.43.412V71h-.874v-3.46zm2.781-.05q.618 0 1 .394.38.387.38 1.087V71h-.874v-1.91q0-.413-.206-.632-.206-.225-.562-.224-.362 0-.575.224-.206.219-.206.631V71h-.874v-3.46h.874v.431q.175-.225.444-.35.275-.13.6-.13m3.23.769v1.673q0 .175.08.256.09.075.288.075h.406V71h-.55q-1.105 0-1.105-1.074v-1.667h-.412v-.719h.412v-.855h.88v.855h.775v.719zM12.953 90.268a.8.8 0 0 1 .48.288q.196.235.196.547 0 .255-.13.46a.87.87 0 0 1-.369.322 1.4 1.4 0 0 1-.585.115h-1.161v-3.354h1.127q.51 0 .773.235.268.235.268.61a.76.76 0 0 1-.167.508.9.9 0 0 1-.432.269m-1.233-.14h.782q.34 0 .523-.157a.56.56 0 0 0 .187-.447.54.54 0 0 0-.187-.436q-.182-.159-.538-.159h-.767zm.801 1.589q.365 0 .566-.173a.59.59 0 0 0 .206-.475.59.59 0 0 0-.215-.48q-.212-.182-.571-.182h-.787v1.31zm1.572-1.032q0-.402.159-.705.162-.307.446-.47.287-.168.647-.168.375 0 .643.173.274.172.394.441v-.576h.336V92h-.336v-.58q-.125.268-.398.446-.27.172-.643.172-.355 0-.643-.167a1.2 1.2 0 0 1-.447-.475 1.5 1.5 0 0 1-.158-.71m2.289.005q0-.317-.13-.556a.95.95 0 0 0-.845-.499 1 1 0 0 0-.498.124.9.9 0 0 0-.35.365 1.2 1.2 0 0 0-.125.561q0 .322.125.566a.93.93 0 0 0 .35.37 1 1 0 0 0 .499.125.95.95 0 0 0 .844-.5q.13-.24.13-.556m2.33-1.358q.471 0 .768.293.298.288.298.84V92h-.331v-1.497q0-.427-.216-.653-.21-.225-.58-.225-.38 0-.605.24t-.226.705V92h-.336v-2.62h.336v.447a.84.84 0 0 1 .36-.365q.235-.13.533-.13m1.655 1.358q0-.408.163-.71.164-.307.451-.47a1.3 1.3 0 0 1 .657-.168q.486 0 .797.24.316.24.408.652h-.36a.72.72 0 0 0-.293-.441.9.9 0 0 0-.552-.163.95.95 0 0 0-.475.12q-.21.12-.335.36-.12.234-.12.58t.12.585q.125.24.335.36.212.12.476.12.33 0 .551-.158a.75.75 0 0 0 .293-.451h.36q-.09.404-.408.648t-.796.244a1.3 1.3 0 0 1-.658-.163 1.2 1.2 0 0 1-.45-.47 1.5 1.5 0 0 1-.164-.715m2.943-.005a1.5 1.5 0 0 1 .158-.705q.163-.307.446-.47.288-.168.648-.168.375 0 .643.173.273.172.393.441v-.576h.336V92h-.336v-.58q-.125.268-.398.446-.269.172-.643.172-.354 0-.643-.167a1.2 1.2 0 0 1-.446-.475 1.5 1.5 0 0 1-.158-.71m2.288.005q0-.317-.13-.556a.95.95 0 0 0-.844-.499 1 1 0 0 0-.499.124.9.9 0 0 0-.35.365 1.2 1.2 0 0 0-.125.561q0 .322.125.566a.93.93 0 0 0 .35.37 1 1 0 0 0 .5.125.95.95 0 0 0 .844-.5q.13-.24.13-.556m.95-.005a1.5 1.5 0 0 1 .158-.705q.162-.307.446-.47.288-.168.648-.168.374 0 .642.173.274.172.394.441v-.576h.336V92h-.336v-.58q-.125.268-.398.446-.27.172-.643.172-.355 0-.643-.167a1.2 1.2 0 0 1-.446-.475 1.5 1.5 0 0 1-.159-.71m2.288.005q0-.317-.13-.556a.95.95 0 0 0-.844-.499 1 1 0 0 0-.5.124.9.9 0 0 0-.35.365 1.2 1.2 0 0 0-.124.561q0 .322.125.566a.93.93 0 0 0 .35.37 1 1 0 0 0 .499.125.95.95 0 0 0 .844-.5q.13-.24.13-.556m2.33-1.358q.471 0 .768.293.298.288.298.84V92h-.331v-1.497q0-.427-.216-.653-.21-.225-.58-.225-.38 0-.605.24t-.226.705V92h-.335v-2.62h.335v.447a.84.84 0 0 1 .36-.365q.235-.13.533-.13M36.82 92h-.336l-1.857-2.821V92h-.336v-3.354h.336l1.857 2.817v-2.817h.336zm.607-1.315a1.5 1.5 0 0 1 .158-.705q.164-.307.447-.47.288-.168.647-.168.375 0 .643.173.274.172.394.441v-.576h.336V92h-.336v-.58q-.125.268-.398.446-.27.172-.643.172-.355 0-.643-.167a1.2 1.2 0 0 1-.447-.475 1.5 1.5 0 0 1-.158-.71m2.289.005q0-.317-.13-.556a.95.95 0 0 0-.844-.499 1 1 0 0 0-.5.124.9.9 0 0 0-.35.365 1.2 1.2 0 0 0-.124.561q0 .322.124.566a.93.93 0 0 0 .35.37 1 1 0 0 0 .5.125.95.95 0 0 0 .844-.5q.13-.24.13-.556m1.27-1.804a.24.24 0 0 1-.172-.072.24.24 0 0 1-.072-.177q0-.105.072-.173a.24.24 0 0 1 .172-.072q.1 0 .173.072a.23.23 0 0 1 .072.173.24.24 0 0 1-.072.177.24.24 0 0 1-.173.072m.168.494V92h-.336v-2.62zm.607 1.31q0-.408.163-.71.165-.307.451-.47.288-.168.658-.168.484 0 .796.24.317.24.408.652h-.36a.72.72 0 0 0-.293-.441.9.9 0 0 0-.551-.163.95.95 0 0 0-.475.12q-.212.12-.336.36-.12.234-.12.58t.12.585q.124.24.336.36.21.12.475.12.33 0 .551-.158a.75.75 0 0 0 .293-.451h.36a1.1 1.1 0 0 1-.408.648q-.317.244-.796.244a1.3 1.3 0 0 1-.658-.163 1.2 1.2 0 0 1-.45-.47 1.5 1.5 0 0 1-.164-.715m4.26-.37q0-.493.215-.882.215-.394.59-.61.375-.22.835-.22.561 0 .96.268.403.264.585.749h-.393a1.15 1.15 0 0 0-.442-.533 1.27 1.27 0 0 0-.71-.192q-.369 0-.667.173a1.2 1.2 0 0 0-.46.5 1.6 1.6 0 0 0-.168.748q0 .427.168.748.168.323.46.494.298.173.667.173.418 0 .71-.187.298-.192.442-.528h.393q-.182.48-.585.744a1.7 1.7 0 0 1-.96.264 1.64 1.64 0 0 1-.835-.216 1.6 1.6 0 0 1-.59-.61 1.8 1.8 0 0 1-.216-.882m3.7.365a1.5 1.5 0 0 1 .16-.705q.162-.307.446-.47.287-.168.647-.168.375 0 .643.173.273.172.394.441v-.576h.335V92h-.335v-.58q-.125.268-.399.446-.268.172-.643.172-.354 0-.642-.167a1.2 1.2 0 0 1-.447-.475 1.5 1.5 0 0 1-.158-.71m2.29.005q0-.317-.13-.556a.95.95 0 0 0-.844-.499 1 1 0 0 0-.5.124.9.9 0 0 0-.35.365 1.2 1.2 0 0 0-.124.561q0 .322.124.566a.93.93 0 0 0 .35.37 1 1 0 0 0 .5.125.95.95 0 0 0 .844-.5q.13-.24.13-.556m2.033.984.883-2.294h.355L54.232 92h-.38l-1.05-2.62h.36zm1.861-2.788a.24.24 0 0 1-.173-.072.24.24 0 0 1-.072-.177q0-.105.072-.173a.24.24 0 0 1 .173-.072q.1 0 .173.072a.23.23 0 0 1 .072.173.24.24 0 0 1-.072.177.24.24 0 0 1-.173.072m.168.494V92h-.336v-2.62zm1.197.283v1.627q0 .24.091.331.091.09.322.091h.307V92h-.36q-.355 0-.528-.163-.173-.168-.173-.547v-1.627h-.364v-.283h.364v-.657h.341v.657h.72v.283zm3.644.893q0 .173-.01.264h-2.173q.014.297.144.508t.34.322q.212.105.461.105.327 0 .547-.158a.74.74 0 0 0 .297-.427h.355a1.12 1.12 0 0 1-.412.629q-.312.24-.787.24-.37 0-.662-.164a1.2 1.2 0 0 1-.46-.47 1.5 1.5 0 0 1-.164-.715q0-.408.163-.715.163-.306.456-.47.292-.163.667-.163t.652.163a1.1 1.1 0 0 1 .432.442q.154.273.154.609m-.34-.01a.9.9 0 0 0-.12-.499.8.8 0 0 0-.332-.312 1 1 0 0 0-.46-.105q-.375 0-.639.24t-.292.676zm-47.247 7.657h-1.526L11.51 99h-.356l1.224-3.31h.38L13.974 99h-.355zm-.1-.278-.663-1.813-.662 1.813zm1.618-.964q.13-.274.398-.446.274-.173.643-.173.36 0 .643.168.283.163.441.47.165.303.164.705 0 .404-.164.71a1.14 1.14 0 0 1-.446.476 1.23 1.23 0 0 1-.638.167q-.374 0-.648-.167a1.03 1.03 0 0 1-.393-.447V99h-.331v-3.55h.33zm1.948.724q0-.325-.13-.561a.87.87 0 0 0-.345-.365 1 1 0 0 0-.5-.124.93.93 0 0 0-.844.499q-.13.24-.13.556t.13.557a.93.93 0 0 0 .845.499 1 1 0 0 0 .499-.125.9.9 0 0 0 .345-.37q.13-.244.13-.566m1.29-.724q.13-.274.398-.446.273-.173.643-.173.36 0 .643.168.282.163.441.47.163.303.163.705 0 .404-.163.71a1.14 1.14 0 0 1-.446.476 1.23 1.23 0 0 1-.638.167q-.375 0-.648-.167a1.03 1.03 0 0 1-.393-.447V99h-.331v-3.55h.33zm1.948.724q0-.325-.13-.561a.87.87 0 0 0-.346-.365 1 1 0 0 0-.498-.124.93.93 0 0 0-.844.499q-.13.24-.13.556t.13.557a.93.93 0 0 0 .843.499 1 1 0 0 0 .5-.125.9.9 0 0 0 .345-.37q.13-.244.13-.566m3.117-1.305-1.554 3.853h-.35l.508-1.247-1.075-2.606h.37l.892 2.236.864-2.236zm1.554-.038q.37 0 .643.173.274.172.394.436v-.57h.336v2.686q0 .36-.159.638a1.05 1.05 0 0 1-.431.427 1.3 1.3 0 0 1-.634.154q-.504 0-.84-.24a1.02 1.02 0 0 1-.412-.653h.331a.8.8 0 0 0 .326.437q.245.163.595.163.255 0 .456-.11a.76.76 0 0 0 .317-.317q.115-.21.115-.499v-.648q-.125.27-.398.447-.27.172-.639.172-.36 0-.647-.167a1.2 1.2 0 0 1-.447-.475 1.5 1.5 0 0 1-.158-.71q0-.404.159-.706.162-.307.446-.47.287-.168.647-.168m1.037 1.348q0-.317-.13-.556a.95.95 0 0 0-.844-.499 1 1 0 0 0-.5.124.9.9 0 0 0-.35.365 1.2 1.2 0 0 0-.124.561q0 .322.125.566a.93.93 0 0 0 .35.37 1 1 0 0 0 .499.125.95.95 0 0 0 .844-.5q.13-.24.13-.556m.949-.005q0-.402.158-.705.164-.307.446-.47.288-.168.648-.168.375 0 .643.173.273.172.394.441v-.576h.335V99h-.335v-.58q-.125.268-.399.446-.268.172-.643.172-.354 0-.643-.167a1.2 1.2 0 0 1-.446-.475 1.5 1.5 0 0 1-.158-.71m2.289.005q0-.317-.13-.556a.95.95 0 0 0-.844-.499 1 1 0 0 0-.5.124.9.9 0 0 0-.35.365 1.2 1.2 0 0 0-.124.561q0 .322.124.566a.93.93 0 0 0 .35.37 1 1 0 0 0 .5.125.95.95 0 0 0 .844-.5q.13-.24.13-.556m1.27-1.804a.24.24 0 0 1-.173-.072.24.24 0 0 1-.072-.177q0-.105.072-.173a.24.24 0 0 1 .173-.072q.1 0 .173.072a.23.23 0 0 1 .072.173q0 .106-.072.177a.24.24 0 0 1-.173.072m.168.494V99h-.336v-2.62zm1.096-.93V99h-.335v-3.55zm4.02 2.754h-1.525l-.293.796h-.355l1.224-3.31h.379L36.179 99h-.355zm-.1-.279-.662-1.813-.662 1.813zm4.406-1.593q.46 0 .749.293.292.288.292.84V99h-.33v-1.497q0-.427-.207-.653-.207-.225-.561-.225a.76.76 0 0 0-.59.245q-.221.245-.221.71V99h-.331v-1.497q0-.427-.207-.653-.206-.225-.566-.225a.76.76 0 0 0-.59.245q-.22.245-.22.71V99h-.337v-2.62h.336v.451a.84.84 0 0 1 .355-.37q.23-.128.514-.129.34 0 .595.164a.9.9 0 0 1 .374.48.88.88 0 0 1 .36-.476q.259-.168.585-.168m1.634 1.353a1.5 1.5 0 0 1 .158-.705q.164-.307.446-.47.288-.168.648-.168.375 0 .643.173.273.172.393.441v-.576h.336V99h-.336v-.58q-.125.268-.398.446-.268.172-.643.172-.355 0-.643-.167a1.2 1.2 0 0 1-.446-.475 1.5 1.5 0 0 1-.158-.71m2.288.005q0-.317-.13-.556a.95.95 0 0 0-.845-.499 1 1 0 0 0-.498.124.9.9 0 0 0-.35.365 1.2 1.2 0 0 0-.125.561q0 .322.125.566a.93.93 0 0 0 .35.37 1 1 0 0 0 .5.125.95.95 0 0 0 .844-.5q.13-.24.13-.556m3.262-1.31-1.554 3.853h-.35l.508-1.247-1.075-2.606h.37l.892 2.236.864-2.236zm.302 1.305q0-.402.158-.705.163-.307.447-.47.287-.168.647-.168.375 0 .643.173.273.172.394.441v-.576h.335V99h-.335v-.58q-.125.268-.399.446-.268.172-.643.172-.354 0-.642-.167a1.2 1.2 0 0 1-.447-.475 1.5 1.5 0 0 1-.158-.71m2.289.005q0-.317-.13-.556a.95.95 0 0 0-.844-.499 1 1 0 0 0-.5.124.9.9 0 0 0-.35.365 1.2 1.2 0 0 0-.124.561q0 .322.124.566a.93.93 0 0 0 .35.37 1 1 0 0 0 .5.125.95.95 0 0 0 .844-.5q.13-.24.13-.556m2.33-1.358q.471 0 .768.293.297.288.298.84V99h-.332v-1.497q0-.427-.215-.653-.212-.225-.58-.225-.38 0-.605.24t-.226.705V99h-.336v-2.62h.336v.447a.84.84 0 0 1 .36-.365q.235-.13.532-.13M12.89 125.034q-.465 0-.844-.216a1.6 1.6 0 0 1-.6-.61 1.8 1.8 0 0 1-.216-.887q0-.495.216-.883.22-.394.6-.609.38-.222.844-.221.47 0 .85.221.378.215.595.609.215.388.215.883 0 .494-.215.887a1.6 1.6 0 0 1-.595.61 1.7 1.7 0 0 1-.85.216m0-.293q.375 0 .672-.173a1.23 1.23 0 0 0 .47-.494q.173-.327.173-.753a1.56 1.56 0 0 0-.173-.749 1.23 1.23 0 0 0-.47-.494 1.3 1.3 0 0 0-.672-.173q-.375 0-.671.173a1.23 1.23 0 0 0-.47.494 1.56 1.56 0 0 0-.173.749q0 .426.172.753.174.321.47.494.299.173.672.173m3.307-2.078h-.61V125h-.336v-2.337h-.364v-.283h.364v-.182q0-.427.216-.629.22-.201.71-.201v.288q-.325 0-.46.125-.13.124-.13.417v.182h.61zm1.56 0h-.61V125h-.335v-2.337h-.365v-.283h.365v-.182q0-.427.216-.629.22-.201.71-.201v.288q-.327 0-.46.125-.13.124-.13.417v.182h.609zm2.899.893q0 .172-.01.264h-2.173q.014.297.144.508t.34.322q.212.105.46.105a.9.9 0 0 0 .548-.158.74.74 0 0 0 .297-.427h.355a1.1 1.1 0 0 1-.412.628q-.312.24-.787.24-.37 0-.662-.163a1.2 1.2 0 0 1-.46-.47 1.5 1.5 0 0 1-.164-.715q0-.408.163-.715a1.14 1.14 0 0 1 .456-.47q.292-.163.667-.163t.652.163q.284.163.432.441.154.274.154.61m-.34-.01a.9.9 0 0 0-.12-.499.8.8 0 0 0-.332-.312 1 1 0 0 0-.46-.105q-.375 0-.639.24-.263.24-.292.676zm1.29-.7a.82.82 0 0 1 .336-.379q.23-.135.561-.135v.351h-.09q-.366 0-.586.196-.22.197-.22.658V125h-.337v-2.62h.336zm1.57-.96a.24.24 0 0 1-.172-.072.24.24 0 0 1-.072-.177q0-.106.072-.173a.24.24 0 0 1 .173-.072q.1 0 .172.072a.23.23 0 0 1 .072.173.24.24 0 0 1-.072.177.24.24 0 0 1-.172.072m.169.494V125h-.336v-2.62zm1.988-.048q.471 0 .768.293.297.288.297.84V125h-.33v-1.497q0-.427-.216-.652-.212-.226-.581-.226-.379 0-.605.24t-.225.705V125h-.336v-2.62h.336v.447a.84.84 0 0 1 .36-.365q.235-.13.532-.13m2.907.01q.369 0 .643.173.273.172.393.436v-.571h.336v2.687q0 .36-.158.638a1.04 1.04 0 0 1-.432.427 1.3 1.3 0 0 1-.633.154q-.504 0-.84-.24a1.02 1.02 0 0 1-.412-.653h.33a.8.8 0 0 0 .327.437q.244.163.595.163a.94.94 0 0 0 .456-.11.76.76 0 0 0 .316-.317q.115-.211.115-.499v-.648q-.124.27-.398.447-.269.172-.638.172-.36 0-.648-.168a1.2 1.2 0 0 1-.446-.475 1.5 1.5 0 0 1-.158-.71 1.5 1.5 0 0 1 .158-.705 1.15 1.15 0 0 1 .446-.47q.288-.168.648-.168m1.036 1.348q0-.316-.13-.556a.92.92 0 0 0-.354-.37.95.95 0 0 0-.49-.129 1 1 0 0 0-.499.124.9.9 0 0 0-.35.365 1.2 1.2 0 0 0-.125.561q0 .322.125.567a.93.93 0 0 0 .35.369 1 1 0 0 0 .5.125.94.94 0 0 0 .844-.499q.13-.24.13-.557m2.75-.734q.126-.263.394-.437.273-.177.648-.177.355 0 .638.168.288.163.446.47.163.303.163.705 0 .404-.163.71a1.14 1.14 0 0 1-.446.475 1.23 1.23 0 0 1-.638.168 1.2 1.2 0 0 1-.643-.172 1.1 1.1 0 0 1-.398-.442v1.814h-.331v-3.858h.33zm1.949.729q0-.326-.13-.561a.87.87 0 0 0-.345-.365 1 1 0 0 0-.5-.124 1 1 0 0 0-.493.129.94.94 0 0 0-.35.37q-.13.24-.13.556t.13.557a.93.93 0 0 0 .844.499 1 1 0 0 0 .499-.125.9.9 0 0 0 .345-.369q.13-.245.13-.567m1.294-.839a.82.82 0 0 1 .336-.379q.23-.135.561-.135v.351h-.09q-.366 0-.586.196-.22.197-.22.658V125h-.337v-2.62h.336zm2.55 2.192q-.37 0-.668-.163a1.24 1.24 0 0 1-.465-.47 1.47 1.47 0 0 1-.168-.715q0-.408.173-.71.173-.307.47-.47.297-.168.667-.168.369 0 .667.168.302.163.47.47.173.302.173.71 0 .404-.173.71a1.2 1.2 0 0 1-.475.475 1.4 1.4 0 0 1-.672.163m0-.292q.258 0 .48-.115a.9.9 0 0 0 .354-.355q.14-.24.14-.586t-.135-.58a.86.86 0 0 0-.355-.355 1 1 0 0 0-.48-.12 1 1 0 0 0-.48.12.86.86 0 0 0-.355.355q-.13.234-.13.58t.13.586q.135.235.35.355.222.114.48.115m2.963-2.083h-.61V125h-.336v-2.337h-.364v-.283h.364v-.182q0-.427.216-.629.22-.201.71-.201v.288q-.325 0-.46.125-.13.124-.13.417v.182h.61zm2.899.893q0 .172-.01.264h-2.174q.015.297.144.508.13.211.341.322.21.105.46.105a.9.9 0 0 0 .548-.158.74.74 0 0 0 .297-.427h.355a1.1 1.1 0 0 1-.413.628q-.311.24-.786.24-.37 0-.662-.163a1.2 1.2 0 0 1-.461-.47 1.5 1.5 0 0 1-.163-.715q0-.408.163-.715a1.14 1.14 0 0 1 .456-.47q.292-.163.667-.163t.652.163q.283.163.432.441.153.274.154.61m-.341-.01a.9.9 0 0 0-.12-.499.8.8 0 0 0-.331-.312 1 1 0 0 0-.46-.105q-.375 0-.639.24t-.293.676zm1.857 1.492q-.45 0-.739-.206a.77.77 0 0 1-.317-.571h.346a.5.5 0 0 0 .206.36q.187.135.5.134.272 0 .426-.129a.4.4 0 0 0 .159-.322.3.3 0 0 0-.087-.22.6.6 0 0 0-.22-.135 3 3 0 0 0-.356-.11 3.5 3.5 0 0 1-.475-.154.84.84 0 0 1-.311-.225.63.63 0 0 1-.125-.408q0-.192.115-.355a.8.8 0 0 1 .326-.259q.21-.096.48-.096.423 0 .681.216a.77.77 0 0 1 .279.585h-.336a.5.5 0 0 0-.183-.369q-.163-.144-.45-.144-.255 0-.413.12a.36.36 0 0 0-.159.297q0 .154.092.255a.7.7 0 0 0 .235.153q.139.053.374.12.283.077.451.149a.8.8 0 0 1 .288.211q.12.14.125.369a.65.65 0 0 1-.116.379.8.8 0 0 1-.321.259 1.1 1.1 0 0 1-.475.096m2.446 0q-.45 0-.739-.206a.77.77 0 0 1-.317-.571h.346a.5.5 0 0 0 .206.36q.187.135.5.134.272 0 .426-.129a.4.4 0 0 0 .158-.322.3.3 0 0 0-.086-.22.6.6 0 0 0-.22-.135 3 3 0 0 0-.356-.11 3.5 3.5 0 0 1-.475-.154.84.84 0 0 1-.312-.225.63.63 0 0 1-.124-.408q0-.192.115-.355a.8.8 0 0 1 .326-.259q.21-.096.48-.096.422 0 .681.216a.77.77 0 0 1 .279.585h-.336a.5.5 0 0 0-.183-.369q-.163-.144-.45-.144-.255 0-.413.12a.36.36 0 0 0-.159.297q0 .154.091.255a.7.7 0 0 0 .236.153q.138.053.374.12.283.077.45.149a.8.8 0 0 1 .289.211q.12.14.124.369a.65.65 0 0 1-.115.379.8.8 0 0 1-.321.259 1.1 1.1 0 0 1-.475.096m1.712-3.152a.24.24 0 0 1-.173-.072.24.24 0 0 1-.072-.177q0-.106.072-.173a.24.24 0 0 1 .173-.072q.1 0 .172.072a.23.23 0 0 1 .072.173.24.24 0 0 1-.072.177.24.24 0 0 1-.172.072m.168.494V125h-.336v-2.62zm1.907 2.658a1.36 1.36 0 0 1-.667-.163 1.24 1.24 0 0 1-.465-.47 1.47 1.47 0 0 1-.168-.715q0-.408.172-.71.173-.307.47-.47.298-.168.667-.168t.667.168q.303.163.47.47.173.302.173.71 0 .404-.172.71a1.2 1.2 0 0 1-.475.475 1.4 1.4 0 0 1-.672.163m0-.292q.259 0 .48-.115a.9.9 0 0 0 .355-.355q.139-.24.139-.586t-.135-.58a.86.86 0 0 0-.355-.355 1 1 0 0 0-.48-.12 1 1 0 0 0-.48.12.86.86 0 0 0-.354.355q-.13.234-.13.58t.13.586q.135.235.35.355.22.114.48.115m3.16-2.414q.47 0 .767.293.298.288.298.84V125h-.331v-1.497q0-.427-.216-.652-.21-.226-.58-.226-.38 0-.605.24t-.226.705V125h-.336v-2.62h.336v.447a.84.84 0 0 1 .36-.365q.235-.13.533-.13m1.654 1.353a1.5 1.5 0 0 1 .159-.705q.162-.307.446-.47.288-.168.647-.168.375 0 .643.173a1 1 0 0 1 .394.441v-.576h.336V125h-.336v-.581q-.125.27-.398.447-.27.172-.643.172-.355 0-.643-.168a1.2 1.2 0 0 1-.446-.475 1.5 1.5 0 0 1-.159-.71m2.289.005q0-.316-.13-.556a.93.93 0 0 0-.355-.37.95.95 0 0 0-.49-.129 1 1 0 0 0-.498.124.9.9 0 0 0-.35.365 1.2 1.2 0 0 0-.125.561q0 .322.125.567a.93.93 0 0 0 .35.369 1 1 0 0 0 .499.125.94.94 0 0 0 .844-.499q.13-.24.13-.557m1.438-2.241V125h-.336v-3.551zm1.068 2.994-.5 1.258h-.23l.356-1.258zm2.77.231.882-2.294h.355l-1.05 2.62h-.38l-1.05-2.62h.36zm1.86-2.788a.24.24 0 0 1-.172-.072.24.24 0 0 1-.072-.177q0-.106.072-.173a.24.24 0 0 1 .173-.072q.1 0 .172.072a.23.23 0 0 1 .072.173.24.24 0 0 1-.072.177.24.24 0 0 1-.172.072m.169.494V125h-.336v-2.62zm1.091.581q.13-.273.398-.446.274-.173.643-.173.36 0 .643.168.283.163.442.47.163.303.163.705 0 .404-.163.71a1.14 1.14 0 0 1-.447.475 1.23 1.23 0 0 1-.638.168q-.374 0-.647-.168a1.03 1.03 0 0 1-.394-.446V125h-.33v-3.551h.33zm1.948.724q0-.326-.13-.561a.87.87 0 0 0-.345-.365 1 1 0 0 0-.499-.124 1 1 0 0 0-.494.129.94.94 0 0 0-.35.37q-.13.24-.13.556t.13.557a.93.93 0 0 0 .844.499 1 1 0 0 0 .5-.125.9.9 0 0 0 .345-.369q.13-.245.13-.567m1.295-.839a.82.82 0 0 1 .335-.379q.23-.135.562-.135v.351h-.091q-.364 0-.586.196-.22.197-.22.658V125h-.336v-2.62h.336zm1.249.839q0-.402.158-.705.163-.307.446-.47.288-.168.648-.168.375 0 .643.173a1 1 0 0 1 .393.441v-.576h.336V125h-.336v-.581q-.125.27-.398.447-.269.172-.643.172-.355 0-.643-.168a1.2 1.2 0 0 1-.446-.475 1.5 1.5 0 0 1-.158-.71m2.288.005q0-.316-.13-.556a.92.92 0 0 0-.354-.37.95.95 0 0 0-.49-.129 1 1 0 0 0-.499.124.9.9 0 0 0-.35.365 1.2 1.2 0 0 0-.125.561q0 .322.125.567a.93.93 0 0 0 .35.369 1 1 0 0 0 .5.125.94.94 0 0 0 .844-.499q.13-.24.13-.557m2.331-1.358q.471 0 .768.293.297.288.297.84V125h-.33v-1.497q0-.427-.217-.652-.21-.226-.58-.226-.379 0-.605.24t-.225.705V125h-.336v-2.62h.336v.447a.84.84 0 0 1 .36-.365 1.1 1.1 0 0 1 .532-.13m2.245.331v1.627q0 .24.09.331.093.091.322.091h.307V125h-.36q-.354 0-.527-.163-.173-.168-.173-.547v-1.627h-.365v-.283h.365v-.657h.34v.657h.72v.283zm-66.57 7.293q.125-.263.393-.437.274-.177.648-.177.356 0 .638.168.287.163.446.47.164.303.164.705 0 .404-.164.71a1.14 1.14 0 0 1-.446.475 1.23 1.23 0 0 1-.638.168 1.2 1.2 0 0 1-.643-.172 1.1 1.1 0 0 1-.398-.442v1.814h-.331v-3.858h.33zm1.948.729q0-.325-.13-.561a.87.87 0 0 0-.345-.365 1 1 0 0 0-.5-.124 1 1 0 0 0-.493.129.94.94 0 0 0-.35.37q-.13.24-.13.556t.13.557a.93.93 0 0 0 .844.499 1 1 0 0 0 .499-.125.9.9 0 0 0 .345-.369q.13-.245.13-.567m1.294-.839a.82.82 0 0 1 .336-.379q.23-.135.562-.135v.351h-.091q-.366 0-.586.196-.22.197-.22.658V132h-.337v-2.62h.336zm1.57-.96a.24.24 0 0 1-.172-.072.24.24 0 0 1-.072-.177q0-.106.072-.173a.24.24 0 0 1 .173-.072q.1 0 .173.072a.23.23 0 0 1 .072.173.24.24 0 0 1-.072.177.24.24 0 0 1-.173.072m.169.494V132h-.336v-2.62zm1.989-.048q.47 0 .767.293.298.288.298.84V132h-.331v-1.497q0-.427-.216-.652-.211-.226-.58-.226-.38 0-.605.24t-.226.705V132h-.336v-2.62h.336v.447a.84.84 0 0 1 .36-.365q.235-.13.533-.13m2.244.331v1.627q0 .24.091.331t.322.091h.307V132h-.36q-.355 0-.528-.163-.172-.168-.172-.547v-1.627h-.365v-.283h.364v-.657h.341v.657h.72v.283zm1.442-.777a.24.24 0 0 1-.173-.072.24.24 0 0 1-.072-.177q0-.106.072-.173a.24.24 0 0 1 .173-.072q.1 0 .172.072a.23.23 0 0 1 .072.173.24.24 0 0 1-.072.177.24.24 0 0 1-.172.072m.168.494V132h-.336v-2.62zm1.988-.048q.471 0 .768.293.298.288.298.84V132h-.331v-1.497q0-.427-.216-.652-.212-.226-.581-.226-.379 0-.605.24t-.225.705V132h-.336v-2.62h.336v.447a.84.84 0 0 1 .36-.365 1.1 1.1 0 0 1 .532-.13m2.907.01q.369 0 .643.173.273.172.393.436v-.571h.336v2.687q0 .36-.158.638a1.04 1.04 0 0 1-.432.427 1.3 1.3 0 0 1-.633.154q-.504 0-.84-.24a1.02 1.02 0 0 1-.412-.653h.33a.8.8 0 0 0 .327.437q.244.163.595.163.254 0 .456-.11a.76.76 0 0 0 .316-.317q.116-.211.116-.499v-.648q-.125.27-.399.447-.269.172-.638.172-.36 0-.648-.168a1.2 1.2 0 0 1-.446-.475 1.5 1.5 0 0 1-.158-.71 1.5 1.5 0 0 1 .158-.705 1.15 1.15 0 0 1 .446-.47q.288-.168.648-.168m1.037 1.348q0-.316-.13-.556a.93.93 0 0 0-.355-.37.95.95 0 0 0-.49-.129 1 1 0 0 0-.498.124.9.9 0 0 0-.35.365 1.2 1.2 0 0 0-.125.561q0 .322.124.567a.93.93 0 0 0 .35.369 1 1 0 0 0 .5.125.94.94 0 0 0 .844-.499q.13-.24.13-.557m3.32 1.348q-.45 0-.738-.206a.77.77 0 0 1-.317-.571h.346a.5.5 0 0 0 .206.36q.187.135.499.134.274 0 .427-.129a.4.4 0 0 0 .158-.322.3.3 0 0 0-.086-.22.6.6 0 0 0-.22-.135 3 3 0 0 0-.356-.11 3.5 3.5 0 0 1-.475-.154.84.84 0 0 1-.312-.225.63.63 0 0 1-.124-.408q0-.192.115-.355a.8.8 0 0 1 .326-.259q.21-.096.48-.096.421 0 .681.216a.77.77 0 0 1 .278.585h-.336a.5.5 0 0 0-.182-.369q-.163-.144-.45-.144-.255 0-.413.12a.36.36 0 0 0-.159.297q0 .154.091.255a.7.7 0 0 0 .235.153q.14.052.375.12.283.077.45.149a.8.8 0 0 1 .289.211q.12.14.124.369a.65.65 0 0 1-.115.379.8.8 0 0 1-.321.259 1.1 1.1 0 0 1-.475.096m2.691 0q-.369 0-.667-.163a1.24 1.24 0 0 1-.465-.47 1.47 1.47 0 0 1-.168-.715q0-.408.173-.71.173-.307.47-.47.297-.168.667-.168t.667.168q.302.163.47.47.173.302.173.71 0 .404-.173.71a1.2 1.2 0 0 1-.475.475 1.4 1.4 0 0 1-.672.163m0-.292q.26 0 .48-.115a.9.9 0 0 0 .355-.355q.14-.24.14-.586t-.135-.58a.86.86 0 0 0-.355-.355 1 1 0 0 0-.48-.12 1 1 0 0 0-.48.12.86.86 0 0 0-.355.355q-.13.234-.13.58 0 .345.13.586.135.235.35.355.221.115.48.115m2.268-3.297V132h-.336v-3.551zm3.03.931V132h-.336v-.461a.8.8 0 0 1-.355.375q-.24.129-.538.129-.47 0-.767-.288-.297-.292-.298-.844v-1.531h.331v1.492q0 .428.212.653.215.226.585.226.38 0 .604-.24.225-.24.226-.706v-1.425zm1.203.283v1.627q0 .24.091.331t.322.091h.307V132h-.36q-.355 0-.528-.163-.172-.168-.172-.547v-1.627h-.365v-.283h.364v-.657h.341v.657h.72v.283zm1.442-.777a.24.24 0 0 1-.173-.072.24.24 0 0 1-.072-.177q0-.106.072-.173a.24.24 0 0 1 .173-.072q.101 0 .172.072a.23.23 0 0 1 .072.173.24.24 0 0 1-.072.177.24.24 0 0 1-.172.072m.168.494V132h-.336v-2.62zm1.907 2.658a1.36 1.36 0 0 1-.667-.163 1.24 1.24 0 0 1-.465-.47 1.47 1.47 0 0 1-.168-.715q0-.408.172-.71.173-.307.47-.47.298-.168.668-.168.369 0 .666.168.303.163.47.47.173.302.173.71 0 .404-.172.71a1.2 1.2 0 0 1-.475.475 1.4 1.4 0 0 1-.672.163m0-.292q.26 0 .48-.115a.9.9 0 0 0 .355-.355q.14-.24.139-.586 0-.346-.134-.58a.86.86 0 0 0-.356-.355 1 1 0 0 0-.48-.12 1 1 0 0 0-.48.12.86.86 0 0 0-.354.355q-.13.234-.13.58 0 .345.13.586.135.235.35.355.22.115.48.115m3.16-2.414q.47 0 .768.293.297.288.297.84V132h-.331v-1.497q0-.427-.216-.652-.21-.226-.58-.226-.38 0-.605.24t-.226.705V132h-.335v-2.62h.335v.447a.84.84 0 0 1 .36-.365q.235-.13.533-.13m2.71 2.706q-.45 0-.74-.206a.77.77 0 0 1-.316-.571h.346a.5.5 0 0 0 .206.36q.187.135.499.134.274 0 .427-.129a.4.4 0 0 0 .158-.322.3.3 0 0 0-.086-.22.6.6 0 0 0-.22-.135 3 3 0 0 0-.356-.11 3.5 3.5 0 0 1-.475-.154.84.84 0 0 1-.312-.225.63.63 0 0 1-.124-.408q0-.192.115-.355a.8.8 0 0 1 .326-.259q.21-.096.48-.096.421 0 .681.216a.77.77 0 0 1 .279.585h-.336a.5.5 0 0 0-.183-.369q-.163-.144-.45-.144-.255 0-.413.12a.36.36 0 0 0-.159.297q0 .154.092.255a.7.7 0 0 0 .235.153q.138.052.374.12.283.077.45.149a.8.8 0 0 1 .289.211q.12.14.124.369a.65.65 0 0 1-.115.379.8.8 0 0 1-.321.259 1.1 1.1 0 0 1-.475.096m3.297-2.375v1.627q0 .24.091.331.09.091.322.091h.307V132h-.36q-.355 0-.528-.163-.173-.168-.173-.547v-1.627h-.364v-.283h.364v-.657h.34v.657h.72v.283zm2.42 2.375a1.36 1.36 0 0 1-.667-.163 1.24 1.24 0 0 1-.465-.47 1.47 1.47 0 0 1-.168-.715q0-.408.173-.71.173-.307.47-.47.297-.168.667-.168.369 0 .667.168.302.163.47.47.173.302.173.71 0 .404-.173.71a1.2 1.2 0 0 1-.475.475 1.4 1.4 0 0 1-.672.163m0-.292q.26 0 .48-.115a.9.9 0 0 0 .355-.355q.14-.24.14-.586t-.135-.58a.86.86 0 0 0-.355-.355 1 1 0 0 0-.48-.12 1 1 0 0 0-.48.12.86.86 0 0 0-.355.355q-.13.234-.13.58 0 .345.13.586.135.235.35.355.221.115.48.115m6.367-2.414q.46 0 .749.293.292.288.292.84V132h-.33v-1.497q0-.427-.207-.652-.206-.226-.561-.226a.76.76 0 0 0-.59.245q-.221.245-.221.71V132h-.331v-1.497q0-.427-.207-.652-.206-.226-.566-.226a.76.76 0 0 0-.59.245q-.22.245-.22.71V132h-.336v-2.62h.335v.451a.84.84 0 0 1 .355-.369q.23-.13.514-.13.34 0 .595.163a.92.92 0 0 1 .374.48.88.88 0 0 1 .36-.475q.26-.168.585-.168m1.634 1.353a1.5 1.5 0 0 1 .158-.705 1.15 1.15 0 0 1 .446-.47q.288-.168.648-.168.375 0 .643.173a1 1 0 0 1 .393.441v-.576h.336V132h-.336v-.581q-.125.27-.398.447-.268.172-.643.172-.354 0-.643-.168a1.2 1.2 0 0 1-.446-.475 1.5 1.5 0 0 1-.158-.71m2.288.005q0-.316-.13-.556a.92.92 0 0 0-.354-.37.95.95 0 0 0-.49-.129 1 1 0 0 0-.499.124.9.9 0 0 0-.35.365 1.2 1.2 0 0 0-.125.561q0 .322.125.567a.93.93 0 0 0 .35.369 1 1 0 0 0 .5.125.94.94 0 0 0 .844-.499q.13-.24.13-.557m2.518 1.31-1.08-1.176V132h-.335v-3.551h.336v2.102l1.055-1.171h.47l-1.242 1.305L69.35 132zm3.26-1.444q0 .172-.01.264h-2.173q.015.298.144.508.13.211.341.322.21.105.46.105a.9.9 0 0 0 .547-.158.74.74 0 0 0 .298-.427h.355a1.1 1.1 0 0 1-.413.628q-.311.24-.786.24-.37 0-.663-.163a1.2 1.2 0 0 1-.46-.47 1.5 1.5 0 0 1-.163-.715q0-.408.163-.715.163-.306.456-.47.292-.163.667-.163t.652.163q.283.163.432.441.153.274.153.61m-.34-.01a.9.9 0 0 0-.12-.499.8.8 0 0 0-.331-.312 1 1 0 0 0-.46-.105q-.375 0-.639.24-.263.24-.293.676zm4.43-1.166-1.554 3.853h-.35l.508-1.247-1.074-2.606h.37l.892 2.236.863-2.236zm1.603 2.658a1.36 1.36 0 0 1-.667-.163 1.24 1.24 0 0 1-.466-.47 1.47 1.47 0 0 1-.167-.715q0-.408.172-.71.173-.307.47-.47.298-.168.667-.168t.667.168q.303.163.47.47.174.302.173.71 0 .404-.172.71a1.2 1.2 0 0 1-.475.475 1.4 1.4 0 0 1-.672.163m0-.292q.259 0 .48-.115a.9.9 0 0 0 .355-.355q.138-.24.139-.586 0-.346-.135-.58a.86.86 0 0 0-.355-.355 1 1 0 0 0-.48-.12 1 1 0 0 0-.48.12.86.86 0 0 0-.354.355q-.13.234-.13.58 0 .345.13.586.135.235.35.355.22.115.48.115m4.2-2.366V132h-.335v-.461a.8.8 0 0 1-.355.375q-.24.129-.537.129-.471 0-.768-.288-.297-.292-.298-.844v-1.531h.332v1.492q0 .428.21.653.217.226.586.226.379 0 .605-.24t.225-.706v-1.425zm1.104.466a.82.82 0 0 1 .335-.379q.23-.135.562-.135v.351h-.091q-.365 0-.586.196-.22.197-.22.658V132h-.336v-2.62h.336zm-71.436 7.11q.125-.263.393-.437.274-.177.648-.177.356 0 .638.168.287.163.446.47.164.303.164.705 0 .404-.164.71a1.14 1.14 0 0 1-.446.475 1.23 1.23 0 0 1-.638.168 1.2 1.2 0 0 1-.643-.172 1.1 1.1 0 0 1-.398-.442v1.814h-.331v-3.858h.33zm1.948.729q0-.325-.13-.561a.87.87 0 0 0-.345-.365 1 1 0 0 0-.5-.124 1 1 0 0 0-.493.129.94.94 0 0 0-.35.37q-.13.24-.13.556t.13.557a.93.93 0 0 0 .844.499 1 1 0 0 0 .499-.125.9.9 0 0 0 .345-.369q.13-.245.13-.567m1.294-.839a.82.82 0 0 1 .336-.379q.23-.135.562-.135v.351h-.091q-.366 0-.586.196-.22.197-.22.658V139h-.337v-2.62h.336zm2.55 2.192a1.36 1.36 0 0 1-.667-.163 1.24 1.24 0 0 1-.466-.47 1.47 1.47 0 0 1-.168-.715q0-.408.173-.71.173-.307.47-.47.298-.168.667-.168t.667.168q.303.163.47.47.173.302.173.71 0 .404-.173.71a1.2 1.2 0 0 1-.475.475 1.4 1.4 0 0 1-.671.163m0-.292q.258 0 .48-.115a.9.9 0 0 0 .354-.355q.14-.24.14-.586t-.135-.58a.86.86 0 0 0-.355-.355 1 1 0 0 0-.48-.12 1 1 0 0 0-.48.12.86.86 0 0 0-.354.355q-.13.234-.13.58 0 .345.13.586.134.235.35.355.22.115.48.115m2.123-2.86a.24.24 0 0 1-.172-.072.24.24 0 0 1-.072-.177q0-.106.072-.173a.24.24 0 0 1 .172-.072.22.22 0 0 1 .168.072.23.23 0 0 1 .072.173.24.24 0 0 1-.072.177.22.22 0 0 1-.168.072m.163 3.733q0 .316-.158.465-.159.154-.475.154h-.235v-.288h.182q.188 0 .269-.082.081-.077.081-.263v-3.225h.336zm3.14-2.063q0 .172-.01.264H20.75q.015.298.144.508.13.211.34.322.212.105.461.105.327 0 .547-.158a.74.74 0 0 0 .298-.427h.355a1.1 1.1 0 0 1-.413.628q-.312.24-.787.24-.37 0-.662-.163a1.2 1.2 0 0 1-.46-.47 1.5 1.5 0 0 1-.164-.715q0-.408.163-.715.164-.306.456-.47t.667-.163q.375 0 .653.163.282.163.431.441.154.274.154.61m-.34-.01a.9.9 0 0 0-.12-.499.8.8 0 0 0-.332-.312 1 1 0 0 0-.46-.105q-.375 0-.638.24-.264.24-.293.676zm.8.144q0-.408.164-.71.164-.307.451-.47a1.3 1.3 0 0 1 .657-.168q.485 0 .797.24.317.24.408.652h-.36a.72.72 0 0 0-.293-.441.9.9 0 0 0-.552-.163.94.94 0 0 0-.475.12q-.21.12-.335.36-.12.234-.12.58 0 .345.12.586a.86.86 0 0 0 .335.359q.212.12.475.12a.92.92 0 0 0 .552-.158.75.75 0 0 0 .293-.451h.36q-.091.404-.408.648t-.797.244q-.369 0-.657-.163a1.2 1.2 0 0 1-.45-.47 1.5 1.5 0 0 1-.164-.715m3.534-1.027v1.627q0 .24.09.331.092.091.322.091h.307V139h-.36q-.354 0-.527-.163-.174-.168-.173-.547v-1.627h-.365v-.283h.365v-.657h.34v.657h.72v.283zm2.175 2.375q-.45 0-.739-.206a.77.77 0 0 1-.316-.571h.345a.5.5 0 0 0 .206.36q.188.135.5.134.273 0 .426-.129a.4.4 0 0 0 .159-.322.3.3 0 0 0-.087-.22.6.6 0 0 0-.22-.135 3 3 0 0 0-.355-.11 3.5 3.5 0 0 1-.475-.154.84.84 0 0 1-.312-.225.63.63 0 0 1-.125-.408q0-.192.115-.355a.8.8 0 0 1 .326-.259q.211-.096.48-.096.423 0 .682.216a.77.77 0 0 1 .278.585h-.336a.5.5 0 0 0-.182-.369q-.165-.144-.451-.144-.255 0-.413.12a.36.36 0 0 0-.158.297q0 .154.09.255a.7.7 0 0 0 .236.153q.14.052.374.12.284.077.451.149a.8.8 0 0 1 .288.211q.12.14.125.369a.65.65 0 0 1-.115.379.8.8 0 0 1-.322.259 1.1 1.1 0 0 1-.475.096m3.763 0q-.451 0-.74-.206a.77.77 0 0 1-.316-.571h.346a.5.5 0 0 0 .206.36q.187.135.499.134.274 0 .427-.129a.4.4 0 0 0 .158-.322.3.3 0 0 0-.086-.22.6.6 0 0 0-.22-.135 3 3 0 0 0-.356-.11 3.5 3.5 0 0 1-.475-.154.84.84 0 0 1-.312-.225.63.63 0 0 1-.124-.408q0-.192.115-.355a.8.8 0 0 1 .326-.259q.21-.096.48-.096.422 0 .681.216a.77.77 0 0 1 .278.585h-.336a.5.5 0 0 0-.182-.369q-.163-.144-.45-.144-.255 0-.413.12a.36.36 0 0 0-.159.297q0 .154.091.255a.7.7 0 0 0 .235.153q.14.052.375.12.283.077.45.149a.8.8 0 0 1 .289.211q.12.14.124.369a.65.65 0 0 1-.115.379.8.8 0 0 1-.321.259 1.1 1.1 0 0 1-.475.096m1.98-2.375v1.627q0 .24.091.331t.322.091h.307V139h-.36q-.355 0-.528-.163-.172-.168-.172-.547v-1.627h-.365v-.283h.364v-.657h.341v.657h.72v.283zm1.12 1.022q0-.402.158-.705.164-.307.447-.47.288-.168.648-.168.374 0 .642.173a1 1 0 0 1 .394.441v-.576h.336V139h-.336v-.581q-.125.27-.398.447-.27.172-.643.172-.355 0-.643-.168a1.2 1.2 0 0 1-.447-.475 1.5 1.5 0 0 1-.158-.71m2.289.005q0-.316-.13-.556a.92.92 0 0 0-.355-.37.95.95 0 0 0-.49-.129 1 1 0 0 0-.498.124.9.9 0 0 0-.35.365 1.2 1.2 0 0 0-.125.561q0 .322.125.567a.93.93 0 0 0 .35.369 1 1 0 0 0 .499.125.94.94 0 0 0 .844-.499q.13-.24.13-.557m2.33-1.358q.471 0 .768.293.298.288.298.84V139h-.331v-1.497q0-.427-.216-.652-.21-.226-.58-.226-.38 0-.605.24t-.226.705V139h-.336v-2.62h.336v.447a.84.84 0 0 1 .36-.365 1.1 1.1 0 0 1 .533-.13m1.655 1.353q0-.402.163-.705a1.15 1.15 0 0 1 .447-.47q.287-.168.647-.168.345 0 .624.168.278.168.408.436v-1.497h.336V139h-.336v-.585q-.12.273-.394.451a1.2 1.2 0 0 1-.643.172q-.36 0-.647-.168a1.2 1.2 0 0 1-.447-.475 1.5 1.5 0 0 1-.158-.71m2.289.005q0-.316-.13-.556a.92.92 0 0 0-.355-.37.95.95 0 0 0-.49-.129 1 1 0 0 0-.498.124.9.9 0 0 0-.35.365 1.2 1.2 0 0 0-.125.561q0 .322.125.567a.93.93 0 0 0 .35.369 1 1 0 0 0 .499.125.94.94 0 0 0 .844-.499q.13-.24.13-.557m3.566 1.348a1.36 1.36 0 0 1-.667-.163 1.24 1.24 0 0 1-.466-.47 1.47 1.47 0 0 1-.167-.715q0-.408.172-.71.173-.307.47-.47.298-.168.667-.168t.667.168q.303.163.47.47.174.302.173.71 0 .404-.173.71a1.2 1.2 0 0 1-.475.475 1.4 1.4 0 0 1-.671.163m0-.292q.258 0 .48-.115a.9.9 0 0 0 .355-.355q.139-.24.139-.586t-.135-.58a.86.86 0 0 0-.355-.355 1 1 0 0 0-.48-.12 1 1 0 0 0-.48.12.86.86 0 0 0-.354.355q-.13.234-.13.58 0 .345.13.586.135.235.35.355.22.115.48.115m4.2-2.366V139h-.335v-.461a.8.8 0 0 1-.355.375q-.24.129-.538.129-.47 0-.767-.288-.297-.292-.298-.844v-1.531h.332v1.492q0 .428.21.653.217.226.586.226.379 0 .605-.24t.225-.706v-1.425zm1.204.283v1.627q0 .24.091.331t.322.091h.307V139h-.36q-.355 0-.528-.163-.172-.168-.172-.547v-1.627h-.365v-.283h.365v-.657h.34v.657h.72v.283zm1.58 1.78-.498 1.258h-.23l.355-1.258zm2.871-1.78h-.609V139h-.336v-2.337h-.364v-.283h.364v-.182q0-.427.216-.629.22-.201.71-.201v.288q-.325 0-.46.125-.13.125-.13.417v.182h.61zm.865.183a.82.82 0 0 1 .336-.379q.23-.135.561-.135v.351h-.091q-.365 0-.585.196-.22.197-.221.658V139h-.336v-2.62h.336zm2.55 2.192a1.36 1.36 0 0 1-.668-.163 1.24 1.24 0 0 1-.465-.47 1.47 1.47 0 0 1-.168-.715q0-.408.173-.71.173-.307.47-.47.297-.168.667-.168.369 0 .667.168.302.163.47.47.173.302.173.71 0 .404-.173.71a1.2 1.2 0 0 1-.475.475 1.4 1.4 0 0 1-.672.163m0-.292q.258 0 .479-.115a.9.9 0 0 0 .355-.355q.14-.24.14-.586t-.135-.58a.86.86 0 0 0-.355-.355 1 1 0 0 0-.48-.12 1 1 0 0 0-.48.12.86.86 0 0 0-.355.355q-.13.234-.13.58 0 .345.13.586.135.235.35.355.221.115.48.115m5.05-2.414q.46 0 .748.293.293.288.293.84V139h-.331v-1.497q0-.427-.207-.652-.206-.226-.561-.226a.76.76 0 0 0-.59.245q-.22.245-.22.71V139h-.332v-1.497q0-.427-.206-.652-.207-.226-.566-.226a.76.76 0 0 0-.59.245q-.222.245-.221.71V139h-.336v-2.62h.336v.451a.84.84 0 0 1 .355-.369q.23-.13.513-.13.34 0 .595.163a.92.92 0 0 1 .374.48.88.88 0 0 1 .36-.475q.26-.168.585-.168m4.005 2.706q-.45 0-.739-.206a.77.77 0 0 1-.316-.571h.345a.5.5 0 0 0 .206.36q.187.135.5.134.273 0 .426-.129a.4.4 0 0 0 .159-.322.3.3 0 0 0-.087-.22.6.6 0 0 0-.22-.135 3 3 0 0 0-.355-.11 3.5 3.5 0 0 1-.475-.154.84.84 0 0 1-.312-.225.63.63 0 0 1-.125-.408q0-.192.115-.355a.8.8 0 0 1 .326-.259q.212-.096.48-.096.423 0 .681.216a.77.77 0 0 1 .279.585h-.336a.5.5 0 0 0-.182-.369q-.165-.144-.451-.144-.255 0-.413.12a.36.36 0 0 0-.158.297q0 .154.09.255a.7.7 0 0 0 .236.153q.139.052.374.12.284.077.451.149a.8.8 0 0 1 .288.211q.12.14.125.369a.65.65 0 0 1-.115.379.8.8 0 0 1-.322.259 1.1 1.1 0 0 1-.475.096m4.663-2.706q.46 0 .748.293.293.288.293.84V139h-.331v-1.497q0-.427-.207-.652-.206-.226-.56-.226a.76.76 0 0 0-.591.245q-.22.245-.22.71V139h-.332v-1.497q0-.427-.206-.652t-.566-.226a.76.76 0 0 0-.59.245q-.22.245-.221.71V139h-.336v-2.62h.336v.451a.84.84 0 0 1 .355-.369q.231-.13.513-.13.341 0 .595.163a.92.92 0 0 1 .374.48.88.88 0 0 1 .36-.475q.26-.168.586-.168m1.633 1.353a1.5 1.5 0 0 1 .159-.705 1.15 1.15 0 0 1 .446-.47q.288-.168.648-.168.373 0 .642.173a1 1 0 0 1 .394.441v-.576h.336V139h-.336v-.581q-.125.27-.398.447-.27.172-.643.172-.355 0-.643-.168a1.2 1.2 0 0 1-.446-.475 1.5 1.5 0 0 1-.159-.71m2.289.005q0-.316-.13-.556a.92.92 0 0 0-.355-.37.95.95 0 0 0-.49-.129 1 1 0 0 0-.498.124.9.9 0 0 0-.35.365 1.2 1.2 0 0 0-.125.561q0 .322.125.567a.93.93 0 0 0 .35.369 1 1 0 0 0 .499.125.94.94 0 0 0 .844-.499q.13-.24.13-.557m1.438-2.241V139h-.335v-3.551zm1.097 0V139h-.336v-3.551zm-69.824 8.507q.125-.263.393-.437.274-.177.648-.177.356 0 .638.168.287.163.446.47.164.303.164.705 0 .404-.164.71a1.14 1.14 0 0 1-.446.475 1.23 1.23 0 0 1-.638.168 1.2 1.2 0 0 1-.643-.172 1.1 1.1 0 0 1-.398-.442v1.814h-.331v-3.858h.33zm1.948.729q0-.325-.13-.561a.87.87 0 0 0-.345-.365 1 1 0 0 0-.5-.124 1 1 0 0 0-.493.129.94.94 0 0 0-.35.37q-.13.24-.13.556t.13.557a.93.93 0 0 0 .844.499 1 1 0 0 0 .499-.125.9.9 0 0 0 .345-.369q.13-.245.13-.567m1.294-.839a.82.82 0 0 1 .336-.379q.23-.135.562-.135v.351h-.091q-.366 0-.586.196-.22.197-.22.658V146h-.337v-2.62h.336zm1.57-.96a.24.24 0 0 1-.172-.072.24.24 0 0 1-.072-.177q0-.106.072-.173a.24.24 0 0 1 .173-.072q.1 0 .173.072a.23.23 0 0 1 .072.173.24.24 0 0 1-.072.177.24.24 0 0 1-.173.072m.169.494V146h-.336v-2.62zm1.989-.048q.47 0 .767.293.298.288.298.84V146h-.331v-1.497q0-.427-.216-.652-.211-.226-.58-.226-.38 0-.605.24t-.226.705V146h-.336v-2.62h.336v.447a.84.84 0 0 1 .36-.365q.235-.13.533-.13m2.244.331v1.627q0 .24.091.331t.322.091h.307V146h-.36q-.355 0-.528-.163-.172-.168-.172-.547v-1.627h-.365v-.283h.364v-.657h.341v.657h.72v.283zm2.176 2.375q-.45 0-.74-.206a.77.77 0 0 1-.316-.571h.346a.5.5 0 0 0 .206.36q.187.135.499.134.273 0 .427-.129a.4.4 0 0 0 .158-.322.3.3 0 0 0-.086-.22.6.6 0 0 0-.22-.135 3 3 0 0 0-.356-.11 3.5 3.5 0 0 1-.475-.154.84.84 0 0 1-.312-.225.63.63 0 0 1-.124-.408q0-.192.115-.355a.8.8 0 0 1 .326-.259q.21-.096.48-.096.421 0 .681.216a.77.77 0 0 1 .278.585h-.335a.5.5 0 0 0-.183-.369q-.164-.144-.45-.144-.255 0-.414.12a.36.36 0 0 0-.158.297q0 .154.091.255a.7.7 0 0 0 .236.153q.138.052.374.12.283.077.45.149a.8.8 0 0 1 .289.211q.12.14.124.369a.65.65 0 0 1-.115.379.8.8 0 0 1-.321.259 1.1 1.1 0 0 1-.475.096m3.297-2.375v1.627q0 .24.091.331.09.091.321.091h.308V146h-.36q-.355 0-.528-.163-.173-.168-.173-.547v-1.627h-.364v-.283h.364v-.657h.34v.657h.72v.283zm2.42 2.375a1.36 1.36 0 0 1-.667-.163 1.24 1.24 0 0 1-.465-.47 1.47 1.47 0 0 1-.168-.715q0-.408.173-.71.172-.307.47-.47.297-.168.667-.168.369 0 .667.168.302.163.47.47.173.302.173.71 0 .404-.173.71a1.2 1.2 0 0 1-.475.475 1.4 1.4 0 0 1-.672.163m0-.292q.26 0 .48-.115a.9.9 0 0 0 .355-.355q.14-.24.14-.586t-.135-.58a.86.86 0 0 0-.355-.355 1 1 0 0 0-.48-.12 1 1 0 0 0-.48.12.86.86 0 0 0-.355.355q-.13.234-.13.58 0 .345.13.586.135.235.35.355.221.115.48.115m3.584-3.297V146h-.336v-3.551zm.607 2.236a1.5 1.5 0 0 1 .159-.705 1.15 1.15 0 0 1 .446-.47q.288-.168.648-.168.374 0 .642.173a1 1 0 0 1 .394.441v-.576h.336V146h-.336v-.581q-.125.27-.398.447-.27.172-.643.172-.355 0-.643-.168a1.2 1.2 0 0 1-.446-.475 1.5 1.5 0 0 1-.159-.71m2.289.005q0-.316-.13-.556a.93.93 0 0 0-.355-.37.95.95 0 0 0-.489-.129 1 1 0 0 0-.499.124.9.9 0 0 0-.35.365 1.2 1.2 0 0 0-.125.561q0 .322.125.567a.93.93 0 0 0 .35.369 1 1 0 0 0 .499.125.94.94 0 0 0 .844-.499q.13-.24.13-.557m1.438-.844a.82.82 0 0 1 .336-.379q.23-.135.562-.135v.351h-.091q-.366 0-.586.196-.22.197-.22.658V146h-.336v-2.62h.335zm2.502-.504q.369 0 .643.173.273.172.393.436v-.571h.336v2.687q0 .36-.158.638a1.04 1.04 0 0 1-.432.427 1.3 1.3 0 0 1-.634.154q-.503 0-.84-.24a1.02 1.02 0 0 1-.412-.653h.331a.8.8 0 0 0 .326.437q.245.163.595.163a.94.94 0 0 0 .456-.11.76.76 0 0 0 .317-.317q.115-.211.115-.499v-.648q-.125.27-.398.447-.27.172-.638.172-.36 0-.648-.168a1.2 1.2 0 0 1-.446-.475 1.5 1.5 0 0 1-.159-.71 1.5 1.5 0 0 1 .159-.705 1.15 1.15 0 0 1 .446-.47q.288-.168.648-.168m1.036 1.348q0-.316-.13-.556a.92.92 0 0 0-.355-.37.95.95 0 0 0-.489-.129 1 1 0 0 0-.499.124.9.9 0 0 0-.35.365 1.2 1.2 0 0 0-.125.561q0 .322.125.567a.93.93 0 0 0 .35.369 1 1 0 0 0 .499.125.94.94 0 0 0 .844-.499q.13-.24.13-.557m3.473-.134q0 .172-.01.264h-2.173q.014.298.144.508t.34.322q.212.105.46.105.326 0 .548-.158a.74.74 0 0 0 .297-.427h.355a1.1 1.1 0 0 1-.412.628q-.312.24-.787.24-.37 0-.662-.163a1.2 1.2 0 0 1-.46-.47 1.5 1.5 0 0 1-.164-.715q0-.408.163-.715.163-.306.456-.47.292-.163.667-.163t.652.163q.284.163.432.441.154.274.154.61m-.34-.01a.9.9 0 0 0-.12-.499.8.8 0 0 0-.332-.312 1 1 0 0 0-.46-.105q-.375 0-.639.24-.263.24-.292.676zm2.117.139q0-.402.163-.705a1.15 1.15 0 0 1 .447-.47q.288-.168.647-.168.346 0 .624.168.279.168.408.436v-1.497h.336V146h-.336v-.585a1.03 1.03 0 0 1-.393.451 1.2 1.2 0 0 1-.643.172q-.36 0-.648-.168a1.2 1.2 0 0 1-.446-.475 1.5 1.5 0 0 1-.159-.71m2.289.005q0-.316-.13-.556a.93.93 0 0 0-.355-.37.95.95 0 0 0-.489-.129 1 1 0 0 0-.499.124.9.9 0 0 0-.35.365 1.2 1.2 0 0 0-.125.561q0 .322.125.567a.93.93 0 0 0 .35.369 1 1 0 0 0 .499.125.94.94 0 0 0 .844-.499q.13-.24.13-.557m1.27-1.804a.24.24 0 0 1-.172-.072.24.24 0 0 1-.072-.177q0-.106.072-.173a.24.24 0 0 1 .172-.072q.101 0 .173.072a.23.23 0 0 1 .072.173.24.24 0 0 1-.072.177.24.24 0 0 1-.172.072m.168.494V146h-.335v-2.62zm1.663 2.658q-.45 0-.739-.206a.77.77 0 0 1-.317-.571h.346a.5.5 0 0 0 .206.36q.187.135.5.134.273 0 .426-.129a.4.4 0 0 0 .159-.322.3.3 0 0 0-.087-.22.6.6 0 0 0-.22-.135 3 3 0 0 0-.355-.11 3.5 3.5 0 0 1-.476-.154.84.84 0 0 1-.311-.225.63.63 0 0 1-.125-.408q0-.192.115-.355a.8.8 0 0 1 .326-.259q.21-.096.48-.096.423 0 .681.216a.77.77 0 0 1 .279.585h-.336a.5.5 0 0 0-.182-.369q-.165-.144-.451-.144-.255 0-.413.12a.36.36 0 0 0-.158.297q0 .154.09.255a.7.7 0 0 0 .236.153q.139.052.374.12.284.077.451.149a.8.8 0 0 1 .288.211q.12.14.125.369a.65.65 0 0 1-.115.379.8.8 0 0 1-.322.259 1.1 1.1 0 0 1-.475.096m1.875-2.082q.124-.263.393-.437.275-.177.648-.177.356 0 .638.168.288.163.446.47.164.303.164.705 0 .404-.164.71a1.14 1.14 0 0 1-.446.475 1.23 1.23 0 0 1-.638.168 1.2 1.2 0 0 1-.643-.172 1.1 1.1 0 0 1-.398-.442v1.814h-.331v-3.858h.33zm1.948.729q0-.325-.13-.561a.87.87 0 0 0-.345-.365 1 1 0 0 0-.5-.124 1 1 0 0 0-.493.129.94.94 0 0 0-.35.37q-.13.24-.13.556t.13.557a.93.93 0 0 0 .844.499 1 1 0 0 0 .499-.125.9.9 0 0 0 .345-.369q.13-.245.13-.567m1.294-2.236V146H55.7v-3.551zm.607 2.236a1.5 1.5 0 0 1 .159-.705 1.15 1.15 0 0 1 .446-.47q.288-.168.648-.168.374 0 .643.173a1 1 0 0 1 .393.441v-.576h.336V146h-.336v-.581q-.125.27-.398.447-.27.172-.643.172-.355 0-.643-.168a1.2 1.2 0 0 1-.446-.475 1.5 1.5 0 0 1-.159-.71m2.29.005q0-.316-.13-.556a.92.92 0 0 0-.355-.37.95.95 0 0 0-.49-.129 1 1 0 0 0-.499.124.9.9 0 0 0-.35.365 1.2 1.2 0 0 0-.125.561q0 .322.125.567a.93.93 0 0 0 .35.369 1 1 0 0 0 .5.125.94.94 0 0 0 .843-.499q.13-.24.13-.557m3.26-1.31-1.554 3.853h-.35l.509-1.247-1.075-2.606h.37l.892 2.236.863-2.236zm1.358 2.658q-.45 0-.739-.206a.77.77 0 0 1-.316-.571h.345a.5.5 0 0 0 .206.36q.187.135.5.134.273 0 .426-.129a.4.4 0 0 0 .159-.322.3.3 0 0 0-.087-.22.6.6 0 0 0-.22-.135 3 3 0 0 0-.355-.11 3.5 3.5 0 0 1-.475-.154.84.84 0 0 1-.312-.225.63.63 0 0 1-.125-.408q0-.192.115-.355a.8.8 0 0 1 .326-.259q.212-.096.48-.096.423 0 .682.216a.77.77 0 0 1 .278.585h-.336a.5.5 0 0 0-.182-.369q-.165-.144-.451-.144-.255 0-.413.12a.36.36 0 0 0-.158.297q0 .154.09.255a.7.7 0 0 0 .236.153q.14.052.374.12.284.077.451.149a.8.8 0 0 1 .288.211q.12.14.125.369a.65.65 0 0 1-.115.379.8.8 0 0 1-.322.259 1.1 1.1 0 0 1-.475.096m1.602-.014a.24.24 0 0 1-.178-.072.25.25 0 0 1-.067-.178q0-.105.067-.172a.24.24 0 0 1 .178-.072.22.22 0 0 1 .168.072.23.23 0 0 1 .072.172q0 .106-.072.178a.22.22 0 0 1-.168.072M83.023 165.625a1.13 1.13 0 0 0-.442-.518 1.23 1.23 0 0 0-.69-.192q-.375 0-.672.173a1.23 1.23 0 0 0-.47.494 1.5 1.5 0 0 0-.173.739q0 .422.173.743.172.322.47.495.297.172.671.172.35 0 .629-.148.284-.155.45-.432.174-.283.198-.658h-1.41v-.273h1.765v.245a1.7 1.7 0 0 1-.24.801 1.597 1.597 0 0 1-1.391.768q-.465 0-.845-.216a1.6 1.6 0 0 1-.6-.61 1.8 1.8 0 0 1-.216-.887q0-.495.216-.883.22-.394.6-.609.38-.221.844-.221.538 0 .94.269.405.268.586.748zm.96 1.06q0-.402.159-.705.163-.307.446-.47.288-.168.648-.168.374 0 .643.173a1 1 0 0 1 .393.441v-.576h.336V168h-.336v-.581q-.125.27-.398.447-.27.172-.643.172-.355 0-.643-.168a1.2 1.2 0 0 1-.446-.475 1.5 1.5 0 0 1-.159-.71m2.289.005q0-.316-.13-.556a.93.93 0 0 0-.355-.37.95.95 0 0 0-.489-.129 1 1 0 0 0-.499.124.9.9 0 0 0-.35.365 1.2 1.2 0 0 0-.125.561q0 .322.125.567a.93.93 0 0 0 .35.369 1 1 0 0 0 .5.125.94.94 0 0 0 .843-.499q.13-.24.13-.557m1.438-.844a.82.82 0 0 1 .336-.379q.23-.135.562-.135v.351h-.091q-.365 0-.586.196-.22.197-.22.658V168h-.336v-2.62h.335zm2.435-.183h-.61V168H89.2v-2.337h-.364v-.283h.364v-.182q0-.427.216-.629.22-.201.71-.201v.288q-.325 0-.46.125-.13.125-.13.417v.182h.61zm.696-.777a.24.24 0 0 1-.172-.072.24.24 0 0 1-.072-.177q0-.106.072-.173a.24.24 0 0 1 .172-.072q.1 0 .173.072a.23.23 0 0 1 .072.173.24.24 0 0 1-.072.177.24.24 0 0 1-.173.072m.168.494V168h-.336v-2.62zm3.13 1.176q0 .172-.009.264h-2.173q.014.298.144.508t.34.322q.212.105.461.105.327 0 .547-.158a.74.74 0 0 0 .297-.427h.356a1.1 1.1 0 0 1-.413.628q-.312.24-.787.24-.37 0-.662-.163a1.2 1.2 0 0 1-.46-.47 1.5 1.5 0 0 1-.164-.715q0-.408.163-.715.163-.306.456-.47t.667-.163q.374 0 .653.163.282.163.431.441.154.274.154.61m-.34-.01a.9.9 0 0 0-.12-.499.8.8 0 0 0-.33-.312 1 1 0 0 0-.461-.105q-.375 0-.639.24-.263.24-.292.676zm1.291-2.097V168h-.336v-3.551zm.607 2.236q0-.402.163-.705a1.15 1.15 0 0 1 .447-.47q.287-.168.647-.168.346 0 .624.168.279.168.408.436v-1.497h.336V168h-.336v-.585q-.12.273-.394.451a1.2 1.2 0 0 1-.642.172q-.36 0-.648-.168a1.2 1.2 0 0 1-.446-.475 1.5 1.5 0 0 1-.159-.71m2.289.005q0-.316-.13-.556a.92.92 0 0 0-.355-.37.95.95 0 0 0-.49-.129 1 1 0 0 0-.498.124.9.9 0 0 0-.35.365 1.2 1.2 0 0 0-.125.561q0 .322.125.567a.93.93 0 0 0 .35.369 1 1 0 0 0 .499.125.94.94 0 0 0 .844-.499q.13-.24.13-.557"/></svg>