<svg width="193" height="418" viewBox="0 0 193 418" fill="none" xmlns="http://www.w3.org/2000/svg">
<path d="M256.682 0L265 16.7V417.5H8.31839L0 400.8L256.682 0Z" fill="#C0C0C0"/>
<rect width="256.682" height="400.8" fill="#E7E5E6"/>
<path d="M138.209 360.148H99.248V335.556H103.22V355.942H116.655V338.009H120.744V355.942H134.237V335.556H138.209V360.148ZM138.209 314.524H99.248V309.735L133.536 285.435L135.172 286.487H99.248V282.281H138.209V287.012L102.636 312.246L100.825 310.319H138.209V314.524ZM138.209 261.914H134.529L101.292 237.731L103.22 236.913V261.33H99.248V234.168H102.811L135.814 257.825L134.237 258.351V234.168H138.209V261.914ZM138.793 197.405C138.793 201.26 138.053 204.492 136.573 207.101C135.055 209.671 132.816 211.618 129.856 212.942C126.896 214.228 123.197 214.87 118.758 214.87C112.138 214.87 107.153 213.41 103.804 210.489C100.416 207.53 98.7223 203.168 98.7223 197.405C98.7223 193.511 99.4817 190.278 101 187.708C102.48 185.099 104.7 183.152 107.659 181.867C110.619 180.543 114.318 179.881 118.758 179.881C125.378 179.881 130.382 181.361 133.77 184.32C137.119 187.241 138.793 191.603 138.793 197.405ZM134.821 197.405C134.821 194.328 134.256 191.817 133.127 189.87C131.998 187.923 130.245 186.501 127.87 185.606C125.495 184.671 122.457 184.204 118.758 184.204C115.058 184.204 112.04 184.671 109.704 185.606C107.328 186.501 105.576 187.923 104.447 189.87C103.278 191.817 102.694 194.328 102.694 197.405C102.694 200.442 103.278 202.934 104.447 204.882C105.576 206.829 107.328 208.269 109.704 209.204C112.04 210.1 115.058 210.548 118.758 210.548C122.457 210.548 125.495 210.1 127.87 209.204C130.245 208.269 131.998 206.829 133.127 204.882C134.256 202.934 134.821 200.442 134.821 197.405Z" fill="black"/>
<path d="M41.9572 115.606L41.9572 78.9696L132.912 20L132.912 57.4405L41.9572 115.606Z" fill="#DD127B"/>
<path d="M42.2622 204.195L42.2622 221.876L86.1577 250.335L86.1577 232.266L42.2622 204.195Z" fill="black"/>
<path d="M42.9613 148.412L42.9613 185.049L85.5759 213.047L85.5759 171.498L42.9613 148.412Z" fill="#F9C301"/>
<path d="M43.0571 184.708L46.5803 175.657L73.4303 164.867L85.5085 171.217L43.0571 184.708Z" fill="#CEA100"/>
<path d="M42.9611 184.864L42.9611 148.228L133.916 89.2584L133.916 126.699L42.9611 184.864Z" fill="#0093DD"/>
<path d="M152.871 357.701H155.943V358.568H147.909V355.714C147.909 354.814 148.122 354.128 148.547 353.654C148.973 353.172 149.587 352.931 150.39 352.931C151.193 352.931 151.807 353.172 152.233 353.654C152.659 354.128 152.871 354.814 152.871 355.714V357.701ZM152.04 357.701V355.822C152.04 355.372 151.992 355.015 151.896 354.75C151.799 354.477 151.671 354.272 151.51 354.136C151.342 353.999 151.161 353.911 150.968 353.871C150.776 353.823 150.583 353.798 150.39 353.798C150.197 353.798 150.005 353.823 149.812 353.871C149.619 353.911 149.443 353.999 149.282 354.136C149.113 354.272 148.981 354.477 148.885 354.75C148.788 355.015 148.74 355.372 148.74 355.822V357.701H152.04ZM155.943 333.114H147.909V329.814C147.909 329.027 148.106 328.437 148.499 328.043C148.893 327.642 149.475 327.441 150.246 327.441C150.711 327.441 151.125 327.537 151.486 327.73C151.848 327.923 152.133 328.192 152.341 328.537C152.55 328.882 152.655 329.288 152.655 329.754L152.414 329.392L155.943 327.08V328.103L152.257 330.488L152.703 330.055V332.247H155.943V333.114ZM151.884 332.247V330.211C151.884 329.545 151.751 329.063 151.486 328.766C151.213 328.461 150.82 328.308 150.306 328.308C149.824 328.308 149.443 328.421 149.162 328.645C148.873 328.87 148.728 329.292 148.728 329.91V332.247H151.884ZM155.943 307.448H147.909V306.581H155.943V307.448ZM155.943 286.464H147.909V285.476L154.979 280.465L155.317 280.682H147.909V279.815H155.943V280.791L148.608 285.994L148.234 285.597H155.943V286.464ZM155.943 257.644H148.728V260.487H147.909V253.946H148.728V256.777H155.943V257.644ZM155.943 234.614H147.909V233.747H155.943V234.614ZM155.943 213.63H147.909V212.642L154.979 207.632L155.317 207.848H147.909V206.981H155.943V207.957L148.608 213.16L148.234 212.763H155.943V213.63ZM156.063 183.449C156.063 184.269 155.911 184.955 155.606 185.509C155.292 186.063 154.831 186.481 154.22 186.762C153.602 187.035 152.835 187.171 151.92 187.171C151.004 187.171 150.242 187.035 149.631 186.762C149.021 186.481 148.563 186.063 148.258 185.509C147.953 184.955 147.801 184.269 147.801 183.449C147.801 183.008 147.845 182.574 147.933 182.149C148.021 181.723 148.158 181.314 148.343 180.92H149.246C149.077 181.297 148.933 181.691 148.812 182.1C148.684 182.51 148.62 182.928 148.62 183.353C148.62 184.028 148.74 184.586 148.981 185.027C149.214 185.461 149.575 185.782 150.065 185.991C150.547 186.2 151.165 186.304 151.92 186.304C152.675 186.304 153.297 186.2 153.787 185.991C154.277 185.782 154.642 185.461 154.883 185.027C155.116 184.586 155.232 184.028 155.232 183.353C155.232 183.032 155.208 182.719 155.16 182.414C155.112 182.108 155.04 181.807 154.943 181.51H152.655V183.449H151.811V180.643H155.437C155.646 181.085 155.802 181.538 155.907 182.004C156.011 182.47 156.063 182.952 156.063 183.449Z" fill="black"/>
</svg>
