<svg xmlns="http://www.w3.org/2000/svg" width="193" height="418" fill="none"><path fill="silver" d="M256.682 0 265 16.7v400.8H8.318L0 400.8z"/><path fill="#E7E5E6" d="M0 0h256.682v400.8H0z"/><path fill="#000" d="M138.209 360.148H99.248v-24.592h3.972v20.386h13.435v-17.933h4.089v17.933h13.493v-20.386h3.972zm0-45.624H99.248v-4.789l34.288-24.3 1.636 1.052H99.248v-4.206h38.961v4.731l-35.573 25.234-1.811-1.927h37.384zm0-52.61h-3.68l-33.237-24.183 1.928-.818v24.417h-3.972v-27.162h3.563l33.003 23.657-1.577.526v-24.183h3.972zm.584-64.509q0 5.782-2.22 9.696-2.277 3.855-6.717 5.841-4.44 1.928-11.098 1.928-9.93 0-14.954-4.381-5.082-4.439-5.082-13.084 0-5.841 2.278-9.697 2.22-3.913 6.659-5.841 4.44-1.986 11.099-1.986 9.93 0 15.012 4.439 5.023 4.382 5.023 13.085m-3.972 0q0-4.615-1.694-7.535t-5.257-4.264q-3.563-1.402-9.112-1.402-5.55 0-9.054 1.402-3.564 1.343-5.257 4.264-1.753 2.92-1.753 7.535 0 4.555 1.753 7.477 1.693 2.92 5.257 4.322 3.504 1.344 9.054 1.344 5.549 0 9.112-1.344 3.563-1.402 5.257-4.322 1.694-2.922 1.694-7.477"/><path fill="#DD127B" d="M41.957 115.606V78.97L132.912 20v37.44z"/><path fill="#000" d="M42.262 204.195v17.681l43.896 28.459v-18.069z"/><path fill="#F9C301" d="M42.961 148.412v36.637l42.615 27.998v-41.549z"/><path fill="#CEA100" d="m43.057 184.708 3.523-9.051 26.85-10.79 12.078 6.35z"/><path fill="#0093DD" d="M42.961 184.864v-36.636l90.955-58.97V126.7z"/><path fill="#000" d="M152.871 357.701h3.072v.867h-8.034v-2.854q0-1.35.638-2.06.639-.723 1.843-.723t1.843.723q.639.71.638 2.06zm-.831 0v-1.879q0-.675-.144-1.072-.145-.41-.386-.614a1.25 1.25 0 0 0-.542-.265 2.4 2.4 0 0 0-.578-.073q-.289 0-.578.073-.289.06-.53.265-.253.204-.397.614-.145.397-.145 1.072v1.879zm3.903-24.587h-8.034v-3.3q0-1.18.59-1.771.59-.602 1.747-.602.698 0 1.24.289.543.29.855.807.314.518.314 1.217l-.241-.362 3.529-2.312v1.023l-3.686 2.385.446-.433v2.192h3.24zm-4.059-.867v-2.036q0-1-.398-1.445-.41-.458-1.18-.458-.723 0-1.144.337-.434.338-.434 1.265v2.337zm4.059-24.799h-8.034v-.867h8.034zm0-20.984h-8.034v-.988l7.07-5.011.338.217h-7.408v-.867h8.034v.976l-7.335 5.203-.374-.397h7.709zm0-28.82h-7.215v2.843h-.819v-6.541h.819v2.831h7.215zm0-23.03h-8.034v-.867h8.034zm0-20.984h-8.034v-.988l7.07-5.01.338.216h-7.408v-.867h8.034v.976l-7.335 5.203-.374-.397h7.709zm.12-30.181q0 1.23-.457 2.06a2.97 2.97 0 0 1-1.386 1.253q-.927.41-2.3.409-1.373 0-2.289-.409-.915-.422-1.373-1.253-.457-.83-.457-2.06a6.4 6.4 0 0 1 .132-1.3q.132-.638.41-1.229h.903a9 9 0 0 0-.434 1.18q-.192.615-.192 1.253 0 1.012.361 1.674.35.65 1.084.964.723.313 1.855.313t1.867-.313 1.096-.964q.35-.661.349-1.674 0-.481-.072-.939a6 6 0 0 0-.217-.904h-2.288v1.939h-.844v-2.806h3.626q.313.662.47 1.361.156.7.156 1.445"/></svg>