<svg width="265" height="418" viewBox="0 0 265 418" fill="none" xmlns="http://www.w3.org/2000/svg">
<path d="M256.682 0L265 16.7V417.5H8.31839L0 400.8L256.682 0Z" fill="#C0C0C0"/>
<rect width="256.682" height="400.8" fill="#E7E5E6"/>
<path d="M175.209 356.148H136.248V331.556H140.22V351.942H153.655V334.009H157.744V351.942H171.237V331.556H175.209V356.148ZM175.209 310.524H136.248V305.735L170.536 281.435L172.172 282.487H136.248V278.281H175.209V283.012L139.636 308.246L137.825 306.319H175.209V310.524ZM175.209 257.914H171.529L138.292 233.731L140.22 232.913V257.33H136.248V230.168H139.811L172.814 253.825L171.237 254.351V230.168H175.209V257.914ZM175.793 193.405C175.793 197.26 175.053 200.492 173.573 203.101C172.055 205.671 169.816 207.618 166.856 208.942C163.896 210.227 160.197 210.87 155.758 210.87C149.138 210.87 144.153 209.41 140.804 206.489C137.416 203.53 135.722 199.168 135.722 193.405C135.722 189.511 136.482 186.278 138 183.708C139.48 181.099 141.7 179.152 144.659 177.867C147.619 176.543 151.318 175.881 155.758 175.881C162.378 175.881 167.382 177.361 170.77 180.32C174.119 183.241 175.793 187.602 175.793 193.405ZM171.821 193.405C171.821 190.328 171.256 187.817 170.127 185.87C168.998 183.923 167.245 182.501 164.87 181.606C162.495 180.671 159.457 180.204 155.758 180.204C152.058 180.204 149.04 180.671 146.704 181.606C144.328 182.501 142.576 183.923 141.447 185.87C140.278 187.817 139.694 190.328 139.694 193.405C139.694 196.442 140.278 198.934 141.447 200.882C142.576 202.829 144.328 204.269 146.704 205.204C149.04 206.1 152.058 206.548 155.758 206.548C159.457 206.548 162.495 206.1 164.87 205.204C167.245 204.269 168.998 202.829 170.127 200.882C171.256 198.934 171.821 196.442 171.821 193.405Z" fill="black"/>
<path d="M78.9572 111.606L78.9572 74.9696L169.912 16L169.912 53.4405L78.9572 111.606Z" fill="#DD127B"/>
<path d="M79.2622 200.195L79.2622 217.876L123.158 246.335L123.158 228.266L79.2622 200.195Z" fill="black"/>
<path d="M79.9613 144.412L79.9613 181.049L122.576 209.047L122.576 167.498L79.9613 144.412Z" fill="#F9C301"/>
<path d="M80.0571 180.708L83.5803 171.657L110.43 160.867L122.509 167.217L80.0571 180.708Z" fill="#CEA100"/>
<path d="M79.9611 180.864L79.9611 144.228L170.916 85.2584L170.916 122.699L79.9611 180.864Z" fill="#0093DD"/>
<path d="M189.871 353.701H192.943V354.568H184.909V351.714C184.909 350.814 185.122 350.128 185.547 349.654C185.973 349.172 186.587 348.931 187.39 348.931C188.193 348.931 188.807 349.172 189.233 349.654C189.659 350.128 189.871 350.814 189.871 351.714V353.701ZM189.04 353.701V351.822C189.04 351.372 188.992 351.015 188.896 350.75C188.799 350.477 188.671 350.272 188.51 350.136C188.342 349.999 188.161 349.911 187.968 349.871C187.776 349.823 187.583 349.798 187.39 349.798C187.197 349.798 187.005 349.823 186.812 349.871C186.619 349.911 186.443 349.999 186.282 350.136C186.113 350.272 185.981 350.477 185.885 350.75C185.788 351.015 185.74 351.372 185.74 351.822V353.701H189.04ZM192.943 329.114H184.909V325.814C184.909 325.027 185.106 324.437 185.499 324.043C185.893 323.642 186.475 323.441 187.246 323.441C187.711 323.441 188.125 323.537 188.486 323.73C188.848 323.923 189.133 324.192 189.341 324.537C189.55 324.882 189.655 325.288 189.655 325.754L189.414 325.392L192.943 323.08V324.103L189.257 326.488L189.703 326.055V328.247H192.943V329.114ZM188.884 328.247V326.211C188.884 325.545 188.751 325.063 188.486 324.766C188.213 324.461 187.82 324.308 187.306 324.308C186.824 324.308 186.443 324.421 186.162 324.645C185.873 324.87 185.728 325.292 185.728 325.91V328.247H188.884ZM192.943 303.448H184.909V302.581H192.943V303.448ZM192.943 282.464H184.909V281.476L191.979 276.465L192.317 276.682H184.909V275.815H192.943V276.791L185.608 281.994L185.234 281.597H192.943V282.464ZM192.943 253.644H185.728V256.487H184.909V249.946H185.728V252.777H192.943V253.644ZM192.943 230.614H184.909V229.747H192.943V230.614ZM192.943 209.63H184.909V208.642L191.979 203.632L192.317 203.848H184.909V202.981H192.943V203.957L185.608 209.16L185.234 208.763H192.943V209.63ZM193.063 179.449C193.063 180.269 192.911 180.955 192.606 181.509C192.292 182.063 191.831 182.481 191.22 182.762C190.602 183.035 189.835 183.171 188.92 183.171C188.004 183.171 187.242 183.035 186.631 182.762C186.021 182.481 185.563 182.063 185.258 181.509C184.953 180.955 184.801 180.269 184.801 179.449C184.801 179.008 184.845 178.574 184.933 178.149C185.021 177.723 185.158 177.314 185.343 176.92H186.246C186.077 177.297 185.933 177.691 185.812 178.1C185.684 178.51 185.62 178.928 185.62 179.353C185.62 180.028 185.74 180.586 185.981 181.027C186.214 181.461 186.575 181.782 187.065 181.991C187.547 182.2 188.165 182.304 188.92 182.304C189.675 182.304 190.297 182.2 190.787 181.991C191.277 181.782 191.642 181.461 191.883 181.027C192.116 180.586 192.232 180.028 192.232 179.353C192.232 179.032 192.208 178.719 192.16 178.414C192.112 178.108 192.04 177.807 191.943 177.51H189.655V179.449H188.811V176.643H192.437C192.646 177.085 192.802 177.538 192.907 178.004C193.011 178.47 193.063 178.952 193.063 179.449Z" fill="black"/>
</svg>
