<svg width="19" height="19" viewBox="0 0 19 19" fill="none" xmlns="http://www.w3.org/2000/svg">
<path d="M4.63415 2.31707H11.122V0L14.3659 3.2439L11.122 6.4878V4.17073H4.63415V6.4878L1.39024 3.2439L4.63415 0V2.31707ZM0 15.2927V5.56098H1.85366V15.2927C1.85366 15.7843 2.04895 16.2558 2.39658 16.6034C2.74421 16.951 3.2157 17.1463 3.70732 17.1463H13.439V19H3.70732C2.72408 19 1.7811 18.6094 1.08585 17.9142C0.390591 17.2189 0 16.2759 0 15.2927ZM16.6829 14.3659V7.87805H19L15.7561 4.63415L12.5122 7.87805H14.8293V14.3659H12.5122L15.7561 17.6098L19 14.3659H16.6829Z" fill="#1A90F1"/>
</svg>
