<svg width="20" height="16" viewBox="0 0 20 16" fill="none" xmlns="http://www.w3.org/2000/svg">
<path d="M14 4H16.5C17.88 4 19 5.045 19 6.333V8.667C19 9.955 17.88 11 16.5 11H14M2.083 1H12.917C13.0588 0.99961 13.1993 1.02715 13.3305 1.08107C13.4617 1.13498 13.581 1.2142 13.6816 1.31421C13.7821 1.41422 13.862 1.53305 13.9166 1.66393C13.9713 1.79481 13.9996 1.93518 14 2.077V10.692C14 13.072 12.06 15 9.667 15H5.333C2.94 15 1 13.071 1 10.692V2.077C1.00039 1.93518 1.02872 1.79481 1.08336 1.66393C1.138 1.53305 1.21788 1.41422 1.31844 1.31421C1.41901 1.2142 1.53829 1.13498 1.66947 1.08107C1.80066 1.02715 1.94117 0.99961 2.083 1Z" stroke="#1385E2" stroke-width="2" stroke-linecap="round" stroke-linejoin="round"/>
</svg>
