<svg width="267" height="494" viewBox="0 0 267 494" fill="none" xmlns="http://www.w3.org/2000/svg">
<rect width="267" height="494" fill="#E7E5E6"/>
<circle cx="91" cy="105" r="75" fill="#F9C301"/>
<circle cx="96" cy="260" r="70" fill="#0093DD"/>
<circle cx="182" cy="105" r="40" fill="#0093DD"/>
<circle cx="164" cy="64" r="30" fill="#DD127B"/>
<circle cx="112" cy="167" r="30" fill="#DD127B"/>
<circle cx="189" cy="132" r="25" fill="#F9C301"/>
<circle cx="147" cy="185" r="5" fill="#0093DD"/>
<circle cx="172" cy="315" r="30" fill="#F9C301"/>
<path d="M194.887 465.885H197.974V468H192.123V458.06H194.887V465.885ZM222.232 460.273V461.895H225.404V463.996H222.232V465.786H225.827V468H219.468V458.06H225.827V460.273H222.232ZM212.062 479.099C211.132 479.099 210.276 478.883 209.496 478.45C208.716 478.008 208.096 477.402 207.635 476.631C207.184 475.851 206.958 474.972 206.958 473.995C206.958 473.017 207.184 472.143 207.635 471.372C208.096 470.592 208.716 469.986 209.496 469.553C210.276 469.121 211.132 468.905 212.062 468.905C213.002 468.905 213.858 469.121 214.628 469.553C215.408 469.986 216.024 470.592 216.475 471.372C216.926 472.143 217.152 473.017 217.152 473.995C217.152 474.972 216.926 475.851 216.475 476.631C216.024 477.402 215.408 478.008 214.628 478.45C213.848 478.883 212.993 479.099 212.062 479.099ZM212.062 476.533C212.767 476.533 213.322 476.302 213.726 475.842C214.139 475.381 214.346 474.765 214.346 473.995C214.346 473.205 214.139 472.585 213.726 472.134C213.322 471.673 212.767 471.443 212.062 471.443C211.348 471.443 210.789 471.673 210.384 472.134C209.98 472.585 209.778 473.205 209.778 473.995C209.778 474.775 209.98 475.395 210.384 475.856C210.789 476.307 211.348 476.533 212.062 476.533ZM240.964 476.758H245.095V479H237.862V476.899L241.951 471.288H237.862V469.06H245.095V471.161L240.964 476.758Z" fill="#0093DD"/>
<path d="M203.815 468.099C202.884 468.099 202.029 467.883 201.248 467.45C200.468 467.008 199.848 466.402 199.387 465.631C198.936 464.851 198.711 463.972 198.711 462.995C198.711 462.017 198.936 461.143 199.387 460.372C199.848 459.592 200.468 458.986 201.248 458.553C202.029 458.121 202.884 457.905 203.815 457.905C204.754 457.905 205.61 458.121 206.381 458.553C207.161 458.986 207.776 459.592 208.228 460.372C208.679 461.143 208.904 462.017 208.904 462.995C208.904 463.972 208.679 464.851 208.228 465.631C207.776 466.402 207.161 467.008 206.381 467.45C205.6 467.883 204.745 468.099 203.815 468.099ZM203.815 465.533C204.519 465.533 205.074 465.302 205.478 464.842C205.892 464.381 206.099 463.765 206.099 462.995C206.099 462.205 205.892 461.585 205.478 461.134C205.074 460.673 204.519 460.443 203.815 460.443C203.1 460.443 202.541 460.673 202.137 461.134C201.732 461.585 201.53 462.205 201.53 462.995C201.53 463.775 201.732 464.395 202.137 464.856C202.541 465.307 203.1 465.533 203.815 465.533ZM236.4 468H233.636L229.956 462.445V468H227.193V458.06H229.956L233.636 463.686V458.06H236.4V468ZM223.428 479L221.454 475.334H221.158V479H218.394V469.06H222.751C223.55 469.06 224.227 469.201 224.781 469.483C225.336 469.755 225.754 470.136 226.036 470.625C226.318 471.104 226.459 471.645 226.459 472.246C226.459 472.923 226.271 473.52 225.895 474.037C225.529 474.545 224.988 474.906 224.274 475.123L226.516 479H223.428ZM221.158 473.445H222.526C222.902 473.445 223.184 473.356 223.372 473.177C223.56 472.998 223.653 472.74 223.653 472.401C223.653 472.082 223.555 471.833 223.357 471.654C223.169 471.466 222.892 471.372 222.526 471.372H221.158V473.445Z" fill="#DD127B"/>
<path d="M215.18 468L213.206 464.334H212.91V468H210.147V458.06H214.503C215.302 458.06 215.979 458.201 216.534 458.483C217.088 458.755 217.507 459.136 217.789 459.625C218.071 460.104 218.212 460.645 218.212 461.246C218.212 461.923 218.024 462.52 217.648 463.037C217.281 463.545 216.741 463.906 216.026 464.123L218.268 468H215.18ZM212.91 462.445H214.278C214.654 462.445 214.936 462.356 215.124 462.177C215.312 461.998 215.406 461.74 215.406 461.401C215.406 461.082 215.307 460.833 215.11 460.654C214.922 460.466 214.644 460.372 214.278 460.372H212.91V462.445ZM240.991 465.758H245.122V468H237.889V465.899L241.978 460.288H237.889V458.06H245.122V460.161L240.991 465.758ZM206.124 469.06L203.685 479H200.287L198.919 472.909L197.523 479H194.125L191.714 469.06H194.703L195.859 475.856L197.424 469.06H200.456L201.979 475.799L203.135 469.06H206.124ZM233.596 479L230.48 474.643V479H227.716V469.06H230.48V473.346L233.567 469.06H236.754L233.102 473.882L236.937 479H233.596Z" fill="#F9C301"/>
</svg>
