<svg width="202" height="494" viewBox="0 0 202 494" fill="none" xmlns="http://www.w3.org/2000/svg">
<rect x="-65" width="267" height="494" fill="#E7E5E6"/>
<circle cx="26" cy="105" r="75" fill="#F9C301"/>
<circle cx="31" cy="260" r="70" fill="#0093DD"/>
<circle cx="117" cy="105" r="40" fill="#0093DD"/>
<circle cx="99" cy="64" r="30" fill="#DD127B"/>
<circle cx="47" cy="167" r="30" fill="#DD127B"/>
<circle cx="124" cy="132" r="25" fill="#F9C301"/>
<circle cx="82" cy="185" r="5" fill="#0093DD"/>
<circle cx="107" cy="315" r="30" fill="#F9C301"/>
<path d="M129.887 465.885H132.974V468H127.123V458.06H129.887V465.885ZM157.232 460.273V461.895H160.404V463.996H157.232V465.786H160.827V468H154.468V458.06H160.827V460.273H157.232ZM147.062 479.099C146.132 479.099 145.276 478.883 144.496 478.45C143.716 478.008 143.096 477.402 142.635 476.631C142.184 475.851 141.958 474.972 141.958 473.995C141.958 473.017 142.184 472.143 142.635 471.372C143.096 470.592 143.716 469.986 144.496 469.553C145.276 469.121 146.132 468.905 147.062 468.905C148.002 468.905 148.858 469.121 149.628 469.553C150.408 469.986 151.024 470.592 151.475 471.372C151.926 472.143 152.152 473.017 152.152 473.995C152.152 474.972 151.926 475.851 151.475 476.631C151.024 477.402 150.408 478.008 149.628 478.45C148.848 478.883 147.993 479.099 147.062 479.099ZM147.062 476.533C147.767 476.533 148.322 476.302 148.726 475.842C149.139 475.381 149.346 474.765 149.346 473.995C149.346 473.205 149.139 472.585 148.726 472.134C148.322 471.673 147.767 471.443 147.062 471.443C146.348 471.443 145.789 471.673 145.384 472.134C144.98 472.585 144.778 473.205 144.778 473.995C144.778 474.775 144.98 475.395 145.384 475.856C145.789 476.307 146.348 476.533 147.062 476.533ZM175.964 476.758H180.095V479H172.862V476.899L176.951 471.288H172.862V469.06H180.095V471.161L175.964 476.758Z" fill="#0093DD"/>
<path d="M138.815 468.099C137.884 468.099 137.029 467.883 136.248 467.45C135.468 467.008 134.848 466.402 134.387 465.631C133.936 464.851 133.711 463.972 133.711 462.995C133.711 462.017 133.936 461.143 134.387 460.372C134.848 459.592 135.468 458.986 136.248 458.553C137.029 458.121 137.884 457.905 138.815 457.905C139.754 457.905 140.61 458.121 141.381 458.553C142.161 458.986 142.776 459.592 143.228 460.372C143.679 461.143 143.904 462.017 143.904 462.995C143.904 463.972 143.679 464.851 143.228 465.631C142.776 466.402 142.161 467.008 141.381 467.45C140.6 467.883 139.745 468.099 138.815 468.099ZM138.815 465.533C139.519 465.533 140.074 465.302 140.478 464.842C140.892 464.381 141.099 463.765 141.099 462.995C141.099 462.205 140.892 461.585 140.478 461.134C140.074 460.673 139.519 460.443 138.815 460.443C138.1 460.443 137.541 460.673 137.137 461.134C136.732 461.585 136.53 462.205 136.53 462.995C136.53 463.775 136.732 464.395 137.137 464.856C137.541 465.307 138.1 465.533 138.815 465.533ZM171.4 468H168.636L164.956 462.445V468H162.193V458.06H164.956L168.636 463.686V458.06H171.4V468ZM158.428 479L156.454 475.334H156.158V479H153.394V469.06H157.751C158.55 469.06 159.227 469.201 159.781 469.483C160.336 469.755 160.754 470.136 161.036 470.625C161.318 471.104 161.459 471.645 161.459 472.246C161.459 472.923 161.271 473.52 160.895 474.037C160.529 474.545 159.988 474.906 159.274 475.123L161.516 479H158.428ZM156.158 473.445H157.526C157.902 473.445 158.184 473.356 158.372 473.177C158.56 472.998 158.653 472.74 158.653 472.401C158.653 472.082 158.555 471.833 158.357 471.654C158.169 471.466 157.892 471.372 157.526 471.372H156.158V473.445Z" fill="#DD127B"/>
<path d="M150.18 468L148.206 464.334H147.91V468H145.147V458.06H149.503C150.302 458.06 150.979 458.201 151.534 458.483C152.088 458.755 152.507 459.136 152.789 459.625C153.071 460.104 153.212 460.645 153.212 461.246C153.212 461.923 153.024 462.52 152.648 463.037C152.281 463.545 151.741 463.906 151.026 464.123L153.268 468H150.18ZM147.91 462.445H149.278C149.654 462.445 149.936 462.356 150.124 462.177C150.312 461.998 150.406 461.74 150.406 461.401C150.406 461.082 150.307 460.833 150.11 460.654C149.922 460.466 149.644 460.372 149.278 460.372H147.91V462.445ZM175.991 465.758H180.122V468H172.889V465.899L176.978 460.288H172.889V458.06H180.122V460.161L175.991 465.758ZM141.124 469.06L138.685 479H135.287L133.919 472.909L132.523 479H129.125L126.714 469.06H129.703L130.859 475.856L132.424 469.06H135.456L136.979 475.799L138.135 469.06H141.124ZM168.596 479L165.48 474.643V479H162.716V469.06H165.48V473.346L168.567 469.06H171.754L168.102 473.882L171.937 479H168.596Z" fill="#F9C301"/>
</svg>
