<svg width="27" height="19" viewBox="0 0 27 19" fill="none" xmlns="http://www.w3.org/2000/svg">
<path d="M18.05 13.3C17.798 13.3 17.5564 13.4001 17.3782 13.5782C17.2001 13.7564 17.1 13.998 17.1 14.25C17.1 14.502 17.2001 14.7436 17.3782 14.9218C17.5564 15.0999 17.798 15.2 18.05 15.2H21.85C22.102 15.2 22.3436 15.0999 22.5218 14.9218C22.6999 14.7436 22.8 14.502 22.8 14.25C22.8 13.998 22.6999 13.7564 22.5218 13.5782C22.3436 13.4001 22.102 13.3 21.85 13.3H18.05ZM0 4.75C0 3.49022 0.500445 2.28204 1.39124 1.39124C2.28204 0.500445 3.49022 0 4.75 0H21.85C23.1098 0 24.318 0.500445 25.2088 1.39124C26.0996 2.28204 26.6 3.49022 26.6 4.75V14.25C26.6 15.5098 26.0996 16.718 25.2088 17.6088C24.318 18.4996 23.1098 19 21.85 19H4.75C3.49022 19 2.28204 18.4996 1.39124 17.6088C0.500445 16.718 0 15.5098 0 14.25V4.75ZM24.7 5.7V4.75C24.7 3.99413 24.3997 3.26922 23.8653 2.73475C23.3308 2.20027 22.6059 1.9 21.85 1.9H4.75C3.99413 1.9 3.26922 2.20027 2.73475 2.73475C2.20027 3.26922 1.9 3.99413 1.9 4.75V5.7H24.7ZM1.9 7.6V14.25C1.9 15.0059 2.20027 15.7308 2.73475 16.2653C3.26922 16.7997 3.99413 17.1 4.75 17.1H21.85C22.6059 17.1 23.3308 16.7997 23.8653 16.2653C24.3997 15.7308 24.7 15.0059 24.7 14.25V7.6H1.9Z" fill="#1A90F1"/>
</svg>
