<svg width="23" height="18" viewBox="0 0 23 18" fill="none" xmlns="http://www.w3.org/2000/svg">
<path d="M13.5 10.125H19.125V7.875H13.5V10.125ZM13.5 6.75H19.125V4.5H13.5V6.75ZM3.375 13.5H12.375V12.8812C12.375 12.0375 11.9625 11.3674 11.1375 10.8709C10.3125 10.3744 9.225 10.1257 7.875 10.125C6.525 10.1242 5.4375 10.3729 4.6125 10.8709C3.7875 11.3689 3.375 12.039 3.375 12.8812V13.5ZM7.875 9C8.49375 9 9.02362 8.77987 9.46462 8.33962C9.90562 7.89937 10.1257 7.3695 10.125 6.75C10.1242 6.1305 9.90412 5.601 9.46462 5.1615C9.02512 4.722 8.49525 4.5015 7.875 4.5C7.25475 4.4985 6.72525 4.719 6.2865 5.1615C5.84775 5.604 5.62725 6.1335 5.625 6.75C5.62275 7.3665 5.84325 7.89637 6.2865 8.33962C6.72975 8.78287 7.25925 9.003 7.875 9ZM2.25 18C1.63125 18 1.10175 17.7799 0.6615 17.3396C0.22125 16.8994 0.00075 16.3695 0 15.75V2.25C0 1.63125 0.2205 1.10175 0.6615 0.6615C1.1025 0.22125 1.632 0.00075 2.25 0H20.25C20.8687 0 21.3986 0.2205 21.8396 0.6615C22.2806 1.1025 22.5007 1.632 22.5 2.25V15.75C22.5 16.3687 22.2799 16.8986 21.8396 17.3396C21.3994 17.7806 20.8695 18.0007 20.25 18H2.25ZM2.25 15.75H20.25V2.25H2.25V15.75Z" fill="#1385E2"/>
</svg>
