<svg width="23" height="18" viewBox="0 0 23 18" fill="none" xmlns="http://www.w3.org/2000/svg">
<path d="M14.3437 14.0625H16.0312V12.375H16.875C17.1937 12.375 17.4611 12.267 17.6771 12.051C17.8931 11.835 18.0007 11.568 18 11.25V6.75C18 6.43125 17.892 6.16425 17.676 5.949C17.46 5.73375 17.193 5.62575 16.875 5.625H13.5C13.1812 5.625 12.9142 5.733 12.699 5.949C12.4837 6.165 12.3757 6.432 12.375 6.75V11.25C12.375 11.5687 12.483 11.8361 12.699 12.0521C12.915 12.2681 13.182 12.3757 13.5 12.375H14.3437V14.0625ZM4.5 12.375H6.1875V10.125H8.4375V12.375H10.125V5.625H8.4375V8.4375H6.1875V5.625H4.5V12.375ZM14.0625 10.6875V7.3125H16.3125V10.6875H14.0625ZM2.25 18C1.63125 18 1.10175 17.7799 0.6615 17.3396C0.22125 16.8994 0.00075 16.3695 0 15.75V2.25C0 1.63125 0.2205 1.10175 0.6615 0.6615C1.1025 0.22125 1.632 0.00075 2.25 0H20.25C20.8687 0 21.3986 0.2205 21.8396 0.6615C22.2806 1.1025 22.5007 1.632 22.5 2.25V15.75C22.5 16.3687 22.2799 16.8986 21.8396 17.3396C21.3994 17.7806 20.8695 18.0007 20.25 18H2.25ZM2.25 15.75H20.25V2.25H2.25V15.75Z" fill="#1A90F1"/>
</svg>
