<svg width="46" height="35" viewBox="0 0 46 35" fill="none" xmlns="http://www.w3.org/2000/svg">
<path d="M26.2875 34.7197C25.9462 34.7197 25.5195 34.2077 25.0075 33.1837C24.4955 32.1597 24.2395 31.349 24.2395 30.7517C27.6528 29.1304 30.0848 27.2104 31.5355 24.9917C32.9862 22.773 33.7968 20.3837 33.9675 17.8237L28.4635 9.88771C28.4635 6.90104 29.4022 4.59704 31.2795 2.97571C33.2422 1.35438 35.4182 0.543709 37.8075 0.543709C40.1968 0.543709 42.1168 1.43971 43.5675 3.2317C45.0182 4.93837 45.7435 7.28504 45.7435 10.2717C45.7435 14.6237 44.8475 18.3357 43.0555 21.4077C41.2635 24.4797 39.1302 26.997 36.6555 28.9597C34.1808 30.9224 31.9195 32.373 29.8715 33.3117C27.9088 34.2504 26.7142 34.7197 26.2875 34.7197ZM2.22351 34.7197C1.88217 34.7197 1.45551 34.2077 0.943508 33.1837C0.431508 32.1597 0.175508 31.349 0.175508 30.7517C3.58884 29.1304 6.02084 27.2104 7.47151 24.9917C8.92218 22.773 9.73284 20.3837 9.90351 17.8237L4.39951 9.88771C4.39951 6.90104 5.33817 4.59704 7.21551 2.97571C9.17818 1.35438 11.3542 0.543709 13.7435 0.543709C16.1328 0.543709 18.0528 1.43971 19.5035 3.2317C20.9542 4.93837 21.6795 7.28504 21.6795 10.2717C21.6795 14.6237 20.7835 18.3357 18.9915 21.4077C17.1995 24.4797 15.0662 26.997 12.5915 28.9597C10.1168 30.9224 7.85551 32.373 5.80751 33.3117C3.84484 34.2504 2.65017 34.7197 2.22351 34.7197Z" fill="#007BE0"/>
</svg>
