<svg width="278" height="290" viewBox="0 0 278 290" fill="none" xmlns="http://www.w3.org/2000/svg">
<path d="M147.245 281.586L147.092 281.614L146.105 282.1L145.827 282.156L145.632 282.1L144.646 281.614C144.497 281.568 144.386 281.591 144.312 281.683L144.256 281.822L144.02 287.772L144.09 288.05L144.229 288.23L145.674 289.259L145.883 289.315L146.049 289.259L147.495 288.23L147.662 288.008L147.717 287.772L147.481 281.836C147.444 281.688 147.365 281.605 147.245 281.586ZM150.928 280.015L150.748 280.043L148.176 281.336L148.037 281.475L147.995 281.628L148.246 287.605L148.315 287.772L148.426 287.869L151.22 289.162C151.396 289.208 151.531 289.171 151.623 289.05L151.679 288.856L151.206 280.321C151.16 280.154 151.067 280.053 150.928 280.015ZM140.99 280.043C140.929 280.006 140.855 279.994 140.786 280.01C140.716 280.025 140.654 280.067 140.615 280.127L140.531 280.321L140.059 288.856C140.068 289.023 140.147 289.134 140.295 289.189L140.503 289.162L143.297 287.869L143.436 287.758L143.492 287.605L143.728 281.628L143.686 281.461L143.547 281.322L140.99 280.043Z" fill="#007BE0"/>
<path d="M207.11 2.01933e-06C210.878 -0.00193331 214.513 1.38732 217.32 3.90125C220.126 6.41519 221.906 9.87678 222.317 13.622L222.4 15.29V55.6H236.3C246.936 55.5994 257.171 59.6633 264.91 66.9602C272.649 74.2572 277.307 84.2355 277.931 94.8536L278 97.3V194.6C278.002 201.614 275.353 208.369 270.584 213.512C265.815 218.654 259.279 221.804 252.285 222.331L250.2 222.4H222.4V248.81C222.402 252.578 221.013 256.213 218.499 259.02C215.985 261.826 212.523 263.606 208.778 264.017L207.11 264.1H70.89C67.1223 264.102 63.4865 262.713 60.6802 260.199C57.8738 257.685 56.0944 254.223 55.6834 250.478L55.6 248.81V222.4H27.8C20.7864 222.402 14.0311 219.753 8.88838 214.984C3.74564 210.215 0.595522 203.679 0.0695017 196.685L6.47802e-08 194.6V97.3C-0.000592442 86.6636 4.06332 76.4289 11.3602 68.6902C18.6572 60.9514 28.6355 56.2935 39.2536 55.6695L41.7 55.6H55.6V15.29C55.5981 11.5223 56.9873 7.88654 59.5013 5.08016C62.0152 2.27379 65.4768 0.494425 69.222 0.0834026L70.89 2.01933e-06H207.11ZM194.6 180.7H83.4V236.3H194.6V180.7ZM236.3 83.4H41.7C38.2954 83.4004 35.0094 84.6504 32.4652 86.9127C29.921 89.1751 28.2956 92.2925 27.8973 95.6737L27.8 97.3V194.6H55.6V168.19C55.5981 164.422 56.9873 160.787 59.5013 157.98C62.0152 155.174 65.4768 153.394 69.222 152.983L70.89 152.9H207.11C210.878 152.898 214.513 154.287 217.32 156.801C220.126 159.315 221.906 162.777 222.317 166.522L222.4 168.19V194.6H250.2V97.3C250.2 93.6135 248.736 90.078 246.129 87.4712C243.522 84.8645 239.987 83.4 236.3 83.4ZM208.5 97.3C212.043 97.3039 215.45 98.6605 218.027 101.093C220.603 103.525 222.153 106.849 222.361 110.385C222.568 113.922 221.418 117.405 219.144 120.121C216.87 122.838 213.644 124.584 210.126 125.003L208.5 125.1H180.7C177.157 125.096 173.75 123.739 171.173 121.307C168.597 118.875 167.047 115.551 166.839 112.015C166.632 108.478 167.782 104.995 170.056 102.279C172.33 99.5617 175.556 97.8157 179.074 97.3973L180.7 97.3H208.5ZM194.6 27.8H83.4V55.6H194.6V27.8Z" fill="#007BE0"/>
</svg>
