<svg width="20" height="20" viewBox="0 0 20 20" fill="none" xmlns="http://www.w3.org/2000/svg">
<path d="M19.796 7.982C18.849 3.357 14.729 0 10 0C4.486 0 0 4.486 0 10C0 14.729 3.357 18.849 7.982 19.796C8.14402 19.8302 8.31204 19.8232 8.47067 19.7757C8.6293 19.7282 8.77348 19.6417 8.89 19.524L19.523 8.891C19.761 8.653 19.863 8.313 19.796 7.982ZM9 16C8.99541 14.4064 9.47108 12.8483 10.365 11.529C10.6522 11.1032 10.9797 10.706 11.343 10.343C11.7054 9.98013 12.1019 9.65296 12.527 9.366C12.9554 9.07663 13.4109 8.82948 13.887 8.628C14.368 8.425 14.873 8.268 15.388 8.162C16.1019 8.01879 16.8319 7.97371 17.558 8.028L9.029 16.557C9.016 16.372 9 16.187 9 16ZM2 10C2 5.589 5.589 2 10 2C12.909 2 15.528 3.589 16.929 6.005C16.2764 6.00744 15.6257 6.07376 14.986 6.203C14.343 6.335 13.712 6.531 13.107 6.786C12.5122 7.03807 11.9432 7.34718 11.408 7.709C10.875 8.07 10.378 8.48 9.929 8.929C9.48 9.378 9.071 9.874 8.708 10.409C8.349 10.942 8.038 11.513 7.786 12.107C7.26636 13.3391 6.99909 14.6628 7 16C7 16.491 7.048 16.979 7.119 17.461C4.089 16.288 2 13.336 2 10Z" fill="#1385E2"/>
</svg>
