<svg width="19" height="23" viewBox="0 0 19 23" fill="none" xmlns="http://www.w3.org/2000/svg">
<path d="M15.074 3.48543C14.2459 2.52079 13.7894 1.28219 13.7895 0H10.0453V15.326C10.017 16.1556 9.67391 16.9415 9.08838 17.518C8.50286 18.0945 7.72069 18.4164 6.90689 18.4159C5.18622 18.4159 3.75638 16.9822 3.75638 15.2024C3.75638 13.0766 5.76786 11.4822 7.83992 12.1372V8.23156C3.65944 7.66301 0 10.9754 0 15.2024C0 19.3182 3.34439 22.2474 6.89477 22.2474C10.6996 22.2474 13.7895 19.0957 13.7895 15.2024V7.42818C15.3078 8.54036 17.1307 9.13709 19 9.13381V5.31467C19 5.31467 16.7219 5.42591 15.074 3.48543Z" fill="#1A90F1"/>
</svg>
