<svg width="221" height="86" viewBox="0 0 221 86" fill="none" xmlns="http://www.w3.org/2000/svg">
<path d="M3.17886 71.9879V47.0432H18.9235V49.5863H5.87153V58.1879H17.3528V60.8058H5.87153V69.4448H18.9235V71.9879H3.17886ZM32.389 71.9879V47.0432H35.4556L51.0133 68.996L50.3402 70.0432V47.0432H53.0328V71.9879H50.0036L33.8475 49.2123L35.0817 48.053V71.9879H32.389ZM66.0729 71.9879V69.6318L81.5558 48.3522L82.0793 49.5863H66.4468V47.0432H83.8371V49.3245L68.6907 70.4546L68.3542 69.4448H83.8371V71.9879H66.0729ZM107.375 72.3619C104.906 72.3619 102.837 71.8882 101.167 70.9407C99.521 69.9684 98.2744 68.5348 97.4267 66.6399C96.6039 64.7451 96.1925 62.3765 96.1925 59.5342C96.1925 55.2958 97.1275 52.1045 98.9974 49.9603C100.892 47.7912 103.685 46.7066 107.375 46.7066C109.868 46.7066 111.937 47.1928 113.583 48.1652C115.253 49.1126 116.5 50.5337 117.323 52.4286C118.17 54.3234 118.594 56.692 118.594 59.5342C118.594 63.7727 117.647 66.9765 115.752 69.1456C113.882 71.2898 111.09 72.3619 107.375 72.3619ZM107.375 69.8188C109.344 69.8188 110.952 69.4573 112.199 68.7342C113.446 68.0112 114.356 66.8892 114.929 65.3684C115.527 63.8475 115.827 61.9028 115.827 59.5342C115.827 57.1657 115.527 55.2334 114.929 53.7375C114.356 52.2166 113.446 51.0947 112.199 50.3717C110.952 49.6237 109.344 49.2497 107.375 49.2497C105.43 49.2497 103.834 49.6237 102.588 50.3717C101.341 51.0947 100.419 52.2166 99.8202 53.7375C99.2467 55.2334 98.96 57.1657 98.96 59.5342C98.96 61.9028 99.2467 63.8475 99.8202 65.3684C100.419 66.8892 101.341 68.0112 102.588 68.7342C103.834 69.4573 105.43 69.8188 107.375 69.8188Z" fill="black"/>
<path d="M159.746 10.8568L183.202 10.8568L220.957 69.0902L196.986 69.0902L159.746 10.8568Z" fill="#DD127B"/>
<path d="M103.027 11.0522L91.7071 11.0522L73.486 39.1562L85.0548 39.1562L103.027 11.0522Z" fill="black"/>
<path d="M138.742 11.4995L115.286 11.4995L97.3598 38.7834L123.961 38.7834L138.742 11.4995Z" fill="#F9C301"/>
<path d="M115.503 11.561L121.298 13.8167L128.207 31.0074L124.141 38.7405L115.503 11.561Z" fill="#CEA100"/>
<path d="M115.404 11.4995L138.86 11.4995L176.615 69.7329L152.644 69.7329L115.404 11.4995Z" fill="#0093DD"/>
<path d="M4.7454 81.1865V83.153H4.19016V78.0093H6.01783C6.59364 78.0093 7.03321 78.1455 7.33653 78.418C7.645 78.6905 7.79924 79.0837 7.79924 79.5979C7.79924 80.112 7.645 80.5053 7.33653 80.7778C7.03321 81.0502 6.59364 81.1865 6.01783 81.1865H4.7454ZM4.7454 80.6544H5.94843C6.23633 80.6544 6.46511 80.6235 6.63477 80.5618C6.80957 80.5001 6.94067 80.4179 7.02807 80.3151C7.11547 80.2071 7.17202 80.0914 7.19772 79.968C7.22857 79.8446 7.24399 79.7212 7.24399 79.5979C7.24399 79.4745 7.22857 79.3511 7.19772 79.2277C7.17202 79.1043 7.11547 78.9912 7.02807 78.8884C6.94067 78.7804 6.80957 78.6956 6.63477 78.6339C6.46511 78.5722 6.23633 78.5414 5.94843 78.5414H4.7454V80.6544ZM20.4871 83.153V78.0093H22.6001C23.104 78.0093 23.4819 78.1352 23.7338 78.3871C23.9908 78.639 24.1194 79.0118 24.1194 79.5053C24.1194 79.8035 24.0577 80.0683 23.9343 80.2996C23.8109 80.531 23.6387 80.7135 23.4176 80.8472C23.1965 80.9808 22.9369 81.0477 22.6387 81.0477L22.8701 80.8934L24.3507 83.153H23.6952L22.1683 80.7932L22.4459 81.0785H21.0424V83.153H20.4871ZM21.0424 80.5541H22.3457C22.7724 80.5541 23.0808 80.4693 23.2711 80.2996C23.4664 80.1248 23.5641 79.8729 23.5641 79.5439C23.5641 79.2354 23.4921 78.9912 23.3482 78.8113C23.2042 78.6262 22.9343 78.5336 22.5385 78.5336H21.0424V80.5541ZM36.9197 83.153V78.0093H37.4749V83.153H36.9197ZM50.3549 83.153V78.0093H50.9873L54.1953 82.536L54.0565 82.7519V78.0093H54.6118V83.153H53.9871L50.6557 78.4565L50.9101 78.2175V83.153H50.3549ZM68.8065 83.153V78.5336H66.9866V78.0093H71.174V78.5336H69.3618V83.153H68.8065ZM83.5513 83.153V78.0093H84.1066V83.153H83.5513ZM96.9865 83.153V78.0093H97.6189L100.827 82.536L100.688 82.7519V78.0093H101.243V83.153H100.619L97.2873 78.4565L97.5418 78.2175V83.153H96.9865ZM116.31 83.2301C115.785 83.2301 115.346 83.1324 114.991 82.937C114.636 82.7365 114.369 82.4409 114.189 82.0502C114.014 81.6543 113.927 81.1633 113.927 80.5772C113.927 79.9912 114.014 79.5028 114.189 79.112C114.369 78.7213 114.636 78.4283 114.991 78.2329C115.346 78.0375 115.785 77.9398 116.31 77.9398C116.592 77.9398 116.87 77.9681 117.142 78.0247C117.415 78.0812 117.677 78.1686 117.929 78.2869V78.8653C117.687 78.7573 117.435 78.6647 117.173 78.5876C116.911 78.5054 116.644 78.4642 116.371 78.4642C115.939 78.4642 115.582 78.5414 115.299 78.6956C115.022 78.8447 114.816 79.076 114.682 79.3896C114.549 79.6981 114.482 80.094 114.482 80.5772C114.482 81.0605 114.549 81.459 114.682 81.7726C114.816 82.0862 115.022 82.3201 115.299 82.4743C115.582 82.6234 115.939 82.698 116.371 82.698C116.577 82.698 116.777 82.6825 116.973 82.6517C117.168 82.6208 117.361 82.5746 117.551 82.5129V81.0477H116.31V80.5078H118.106V82.8291C117.824 82.9627 117.533 83.063 117.235 83.1298C116.937 83.1967 116.628 83.2301 116.31 83.2301Z" fill="black"/>
</svg>
